<svg width="482" height="306" viewBox="0 0 482 306" fill="none" xmlns="http://www.w3.org/2000/svg">
<path opacity="0.1" d="M4.54716 9.7659C7.05849 9.7659 9.09433 7.57973 9.09433 4.88295C9.09433 2.18617 7.05849 0 4.54716 0C2.03583 0 0 2.18617 0 4.88295C0 7.57973 2.03583 9.7659 4.54716 9.7659Z" fill="#3B4C68"/>
<path opacity="0.1" d="M43.956 9.7659C46.4673 9.7659 48.5032 7.57973 48.5032 4.88295C48.5032 2.18617 46.4673 0 43.956 0C41.4447 0 39.4088 2.18617 39.4088 4.88295C39.4088 7.57973 41.4447 9.7659 43.956 9.7659Z" fill="#3B4C68"/>
<path opacity="0.1" d="M83.3648 9.7659C85.8762 9.7659 87.912 7.57973 87.912 4.88295C87.912 2.18617 85.8762 0 83.3648 0C80.8535 0 78.8177 2.18617 78.8177 4.88295C78.8177 7.57973 80.8535 9.7659 83.3648 9.7659Z" fill="#3B4C68"/>
<path opacity="0.1" d="M122.774 9.7659C125.285 9.7659 127.321 7.57973 127.321 4.88295C127.321 2.18617 125.285 0 122.774 0C120.262 0 118.226 2.18617 118.226 4.88295C118.226 7.57973 120.262 9.7659 122.774 9.7659Z" fill="#3B4C68"/>
<path opacity="0.1" d="M162.182 9.7659C164.694 9.7659 166.73 7.57973 166.73 4.88295C166.73 2.18617 164.694 0 162.182 0C159.671 0 157.635 2.18617 157.635 4.88295C157.635 7.57973 159.671 9.7659 162.182 9.7659Z" fill="#3B4C68"/>
<path opacity="0.1" d="M201.591 9.7659C204.103 9.7659 206.138 7.57973 206.138 4.88295C206.138 2.18617 204.103 0 201.591 0C199.08 0 197.044 2.18617 197.044 4.88295C197.044 7.57973 199.08 9.7659 201.591 9.7659Z" fill="#3B4C68"/>
<path opacity="0.1" d="M241 9.7659C243.511 9.7659 245.547 7.57973 245.547 4.88295C245.547 2.18617 243.511 0 241 0C238.489 0 236.453 2.18617 236.453 4.88295C236.453 7.57973 238.489 9.7659 241 9.7659Z" fill="#3B4C68"/>
<path opacity="0.1" d="M280.409 9.7659C282.92 9.7659 284.956 7.57973 284.956 4.88295C284.956 2.18617 282.92 0 280.409 0C277.898 0 275.862 2.18617 275.862 4.88295C275.862 7.57973 277.898 9.7659 280.409 9.7659Z" fill="#3B4C68"/>
<path opacity="0.1" d="M319.818 9.7659C322.329 9.7659 324.365 7.57973 324.365 4.88295C324.365 2.18617 322.329 0 319.818 0C317.306 0 315.27 2.18617 315.27 4.88295C315.27 7.57973 317.306 9.7659 319.818 9.7659Z" fill="#3B4C68"/>
<path opacity="0.1" d="M359.226 9.7659C361.738 9.7659 363.774 7.57973 363.774 4.88295C363.774 2.18617 361.738 0 359.226 0C356.715 0 354.679 2.18617 354.679 4.88295C354.679 7.57973 356.715 9.7659 359.226 9.7659Z" fill="#3B4C68"/>
<path opacity="0.1" d="M398.635 9.7659C401.147 9.7659 403.182 7.57973 403.182 4.88295C403.182 2.18617 401.147 0 398.635 0C396.124 0 394.088 2.18617 394.088 4.88295C394.088 7.57973 396.124 9.7659 398.635 9.7659Z" fill="#3B4C68"/>
<path opacity="0.1" d="M438.044 9.7659C440.555 9.7659 442.591 7.57973 442.591 4.88295C442.591 2.18617 440.555 0 438.044 0C435.533 0 433.497 2.18617 433.497 4.88295C433.497 7.57973 435.533 9.7659 438.044 9.7659Z" fill="#3B4C68"/>
<path opacity="0.1" d="M477.453 9.7659C479.964 9.7659 482 7.57973 482 4.88295C482 2.18617 479.964 0 477.453 0C474.942 0 472.906 2.18617 472.906 4.88295C472.906 7.57973 474.942 9.7659 477.453 9.7659Z" fill="#3B4C68"/>
<path opacity="0.1" d="M4.54716 52.0851C7.05849 52.0851 9.09433 49.8989 9.09433 47.2021C9.09433 44.5053 7.05849 42.3191 4.54716 42.3191C2.03583 42.3191 0 44.5053 0 47.2021C0 49.8989 2.03583 52.0851 4.54716 52.0851Z" fill="#3B4C68"/>
<path opacity="0.1" d="M43.956 52.0851C46.4673 52.0851 48.5032 49.8989 48.5032 47.2021C48.5032 44.5053 46.4673 42.3191 43.956 42.3191C41.4447 42.3191 39.4088 44.5053 39.4088 47.2021C39.4088 49.8989 41.4447 52.0851 43.956 52.0851Z" fill="#3B4C68"/>
<path opacity="0.1" d="M83.3648 52.0851C85.8762 52.0851 87.912 49.8989 87.912 47.2021C87.912 44.5053 85.8762 42.3191 83.3648 42.3191C80.8535 42.3191 78.8177 44.5053 78.8177 47.2021C78.8177 49.8989 80.8535 52.0851 83.3648 52.0851Z" fill="#3B4C68"/>
<path opacity="0.1" d="M122.774 52.0851C125.285 52.0851 127.321 49.8989 127.321 47.2021C127.321 44.5053 125.285 42.3191 122.774 42.3191C120.262 42.3191 118.226 44.5053 118.226 47.2021C118.226 49.8989 120.262 52.0851 122.774 52.0851Z" fill="#3B4C68"/>
<path opacity="0.1" d="M162.182 52.0851C164.694 52.0851 166.73 49.8989 166.73 47.2021C166.73 44.5053 164.694 42.3191 162.182 42.3191C159.671 42.3191 157.635 44.5053 157.635 47.2021C157.635 49.8989 159.671 52.0851 162.182 52.0851Z" fill="#3B4C68"/>
<path opacity="0.1" d="M201.591 52.0851C204.103 52.0851 206.138 49.8989 206.138 47.2021C206.138 44.5053 204.103 42.3191 201.591 42.3191C199.08 42.3191 197.044 44.5053 197.044 47.2021C197.044 49.8989 199.08 52.0851 201.591 52.0851Z" fill="#3B4C68"/>
<path opacity="0.1" d="M241 52.0851C243.511 52.0851 245.547 49.8989 245.547 47.2021C245.547 44.5053 243.511 42.3191 241 42.3191C238.489 42.3191 236.453 44.5053 236.453 47.2021C236.453 49.8989 238.489 52.0851 241 52.0851Z" fill="#3B4C68"/>
<path opacity="0.1" d="M280.409 52.0851C282.92 52.0851 284.956 49.8989 284.956 47.2021C284.956 44.5053 282.92 42.3191 280.409 42.3191C277.898 42.3191 275.862 44.5053 275.862 47.2021C275.862 49.8989 277.898 52.0851 280.409 52.0851Z" fill="#3B4C68"/>
<path opacity="0.1" d="M319.818 52.0851C322.329 52.0851 324.365 49.8989 324.365 47.2021C324.365 44.5053 322.329 42.3191 319.818 42.3191C317.306 42.3191 315.27 44.5053 315.27 47.2021C315.27 49.8989 317.306 52.0851 319.818 52.0851Z" fill="#3B4C68"/>
<path opacity="0.1" d="M359.226 52.0851C361.738 52.0851 363.774 49.8989 363.774 47.2021C363.774 44.5053 361.738 42.3191 359.226 42.3191C356.715 42.3191 354.679 44.5053 354.679 47.2021C354.679 49.8989 356.715 52.0851 359.226 52.0851Z" fill="#3B4C68"/>
<path opacity="0.1" d="M398.635 52.0851C401.147 52.0851 403.182 49.8989 403.182 47.2021C403.182 44.5053 401.147 42.3191 398.635 42.3191C396.124 42.3191 394.088 44.5053 394.088 47.2021C394.088 49.8989 396.124 52.0851 398.635 52.0851Z" fill="#3B4C68"/>
<path opacity="0.1" d="M438.044 52.0851C440.555 52.0851 442.591 49.8989 442.591 47.2021C442.591 44.5053 440.555 42.3191 438.044 42.3191C435.533 42.3191 433.497 44.5053 433.497 47.2021C433.497 49.8989 435.533 52.0851 438.044 52.0851Z" fill="#3B4C68"/>
<path opacity="0.1" d="M477.453 52.0851C479.964 52.0851 482 49.8989 482 47.2021C482 44.5053 479.964 42.3191 477.453 42.3191C474.942 42.3191 472.906 44.5053 472.906 47.2021C472.906 49.8989 474.942 52.0851 477.453 52.0851Z" fill="#3B4C68"/>
<path opacity="0.1" d="M4.54716 94.4043C7.05849 94.4043 9.09433 92.2182 9.09433 89.5214C9.09433 86.8246 7.05849 84.6384 4.54716 84.6384C2.03583 84.6384 0 86.8246 0 89.5214C0 92.2182 2.03583 94.4043 4.54716 94.4043Z" fill="#3B4C68"/>
<path opacity="0.1" d="M43.956 94.4043C46.4673 94.4043 48.5032 92.2182 48.5032 89.5214C48.5032 86.8246 46.4673 84.6384 43.956 84.6384C41.4447 84.6384 39.4088 86.8246 39.4088 89.5214C39.4088 92.2182 41.4447 94.4043 43.956 94.4043Z" fill="#3B4C68"/>
<path opacity="0.1" d="M83.3648 94.4043C85.8762 94.4043 87.912 92.2182 87.912 89.5214C87.912 86.8246 85.8762 84.6384 83.3648 84.6384C80.8535 84.6384 78.8177 86.8246 78.8177 89.5214C78.8177 92.2182 80.8535 94.4043 83.3648 94.4043Z" fill="#3B4C68"/>
<path opacity="0.1" d="M122.774 94.4043C125.285 94.4043 127.321 92.2182 127.321 89.5214C127.321 86.8246 125.285 84.6384 122.774 84.6384C120.262 84.6384 118.226 86.8246 118.226 89.5214C118.226 92.2182 120.262 94.4043 122.774 94.4043Z" fill="#3B4C68"/>
<path opacity="0.1" d="M162.182 94.4043C164.694 94.4043 166.73 92.2182 166.73 89.5214C166.73 86.8246 164.694 84.6384 162.182 84.6384C159.671 84.6384 157.635 86.8246 157.635 89.5214C157.635 92.2182 159.671 94.4043 162.182 94.4043Z" fill="#3B4C68"/>
<path opacity="0.1" d="M201.591 94.4043C204.103 94.4043 206.138 92.2182 206.138 89.5214C206.138 86.8246 204.103 84.6384 201.591 84.6384C199.08 84.6384 197.044 86.8246 197.044 89.5214C197.044 92.2182 199.08 94.4043 201.591 94.4043Z" fill="#3B4C68"/>
<path opacity="0.1" d="M241 94.4043C243.511 94.4043 245.547 92.2182 245.547 89.5214C245.547 86.8246 243.511 84.6384 241 84.6384C238.489 84.6384 236.453 86.8246 236.453 89.5214C236.453 92.2182 238.489 94.4043 241 94.4043Z" fill="#3B4C68"/>
<path opacity="0.1" d="M280.409 94.4043C282.92 94.4043 284.956 92.2182 284.956 89.5214C284.956 86.8246 282.92 84.6384 280.409 84.6384C277.898 84.6384 275.862 86.8246 275.862 89.5214C275.862 92.2182 277.898 94.4043 280.409 94.4043Z" fill="#3B4C68"/>
<path opacity="0.1" d="M319.818 94.4043C322.329 94.4043 324.365 92.2182 324.365 89.5214C324.365 86.8246 322.329 84.6384 319.818 84.6384C317.306 84.6384 315.27 86.8246 315.27 89.5214C315.27 92.2182 317.306 94.4043 319.818 94.4043Z" fill="#3B4C68"/>
<path opacity="0.1" d="M359.226 94.4043C361.738 94.4043 363.774 92.2182 363.774 89.5214C363.774 86.8246 361.738 84.6384 359.226 84.6384C356.715 84.6384 354.679 86.8246 354.679 89.5214C354.679 92.2182 356.715 94.4043 359.226 94.4043Z" fill="#3B4C68"/>
<path opacity="0.1" d="M398.635 94.4043C401.147 94.4043 403.182 92.2182 403.182 89.5214C403.182 86.8246 401.147 84.6384 398.635 84.6384C396.124 84.6384 394.088 86.8246 394.088 89.5214C394.088 92.2182 396.124 94.4043 398.635 94.4043Z" fill="#3B4C68"/>
<path opacity="0.1" d="M438.044 94.4043C440.555 94.4043 442.591 92.2182 442.591 89.5214C442.591 86.8246 440.555 84.6384 438.044 84.6384C435.533 84.6384 433.497 86.8246 433.497 89.5214C433.497 92.2182 435.533 94.4043 438.044 94.4043Z" fill="#3B4C68"/>
<path opacity="0.1" d="M477.453 94.4043C479.964 94.4043 482 92.2182 482 89.5214C482 86.8246 479.964 84.6384 477.453 84.6384C474.942 84.6384 472.906 86.8246 472.906 89.5214C472.906 92.2182 474.942 94.4043 477.453 94.4043Z" fill="#3B4C68"/>
<path opacity="0.1" d="M4.54716 136.723C7.05849 136.723 9.09433 134.537 9.09433 131.84C9.09433 129.143 7.05849 126.957 4.54716 126.957C2.03583 126.957 0 129.143 0 131.84C0 134.537 2.03583 136.723 4.54716 136.723Z" fill="#3B4C68"/>
<path opacity="0.1" d="M43.956 136.723C46.4673 136.723 48.5032 134.537 48.5032 131.84C48.5032 129.143 46.4673 126.957 43.956 126.957C41.4447 126.957 39.4088 129.143 39.4088 131.84C39.4088 134.537 41.4447 136.723 43.956 136.723Z" fill="#3B4C68"/>
<path opacity="0.1" d="M83.3648 136.723C85.8762 136.723 87.912 134.537 87.912 131.84C87.912 129.143 85.8762 126.957 83.3648 126.957C80.8535 126.957 78.8177 129.143 78.8177 131.84C78.8177 134.537 80.8535 136.723 83.3648 136.723Z" fill="#3B4C68"/>
<path opacity="0.1" d="M122.774 136.723C125.285 136.723 127.321 134.537 127.321 131.84C127.321 129.143 125.285 126.957 122.774 126.957C120.262 126.957 118.226 129.143 118.226 131.84C118.226 134.537 120.262 136.723 122.774 136.723Z" fill="#3B4C68"/>
<path opacity="0.1" d="M162.182 136.723C164.694 136.723 166.73 134.537 166.73 131.84C166.73 129.143 164.694 126.957 162.182 126.957C159.671 126.957 157.635 129.143 157.635 131.84C157.635 134.537 159.671 136.723 162.182 136.723Z" fill="#3B4C68"/>
<path opacity="0.1" d="M201.591 136.723C204.103 136.723 206.138 134.537 206.138 131.84C206.138 129.143 204.103 126.957 201.591 126.957C199.08 126.957 197.044 129.143 197.044 131.84C197.044 134.537 199.08 136.723 201.591 136.723Z" fill="#3B4C68"/>
<path opacity="0.1" d="M241 136.723C243.511 136.723 245.547 134.537 245.547 131.84C245.547 129.143 243.511 126.957 241 126.957C238.489 126.957 236.453 129.143 236.453 131.84C236.453 134.537 238.489 136.723 241 136.723Z" fill="#3B4C68"/>
<path opacity="0.1" d="M280.409 136.723C282.92 136.723 284.956 134.537 284.956 131.84C284.956 129.143 282.92 126.957 280.409 126.957C277.898 126.957 275.862 129.143 275.862 131.84C275.862 134.537 277.898 136.723 280.409 136.723Z" fill="#3B4C68"/>
<path opacity="0.1" d="M319.818 136.723C322.329 136.723 324.365 134.537 324.365 131.84C324.365 129.143 322.329 126.957 319.818 126.957C317.306 126.957 315.27 129.143 315.27 131.84C315.27 134.537 317.306 136.723 319.818 136.723Z" fill="#3B4C68"/>
<path opacity="0.1" d="M359.226 136.723C361.738 136.723 363.774 134.537 363.774 131.84C363.774 129.143 361.738 126.957 359.226 126.957C356.715 126.957 354.679 129.143 354.679 131.84C354.679 134.537 356.715 136.723 359.226 136.723Z" fill="#3B4C68"/>
<path opacity="0.1" d="M398.635 136.723C401.147 136.723 403.182 134.537 403.182 131.84C403.182 129.143 401.147 126.957 398.635 126.957C396.124 126.957 394.088 129.143 394.088 131.84C394.088 134.537 396.124 136.723 398.635 136.723Z" fill="#3B4C68"/>
<path opacity="0.1" d="M438.044 136.723C440.555 136.723 442.591 134.537 442.591 131.84C442.591 129.143 440.555 126.957 438.044 126.957C435.533 126.957 433.497 129.143 433.497 131.84C433.497 134.537 435.533 136.723 438.044 136.723Z" fill="#3B4C68"/>
<path opacity="0.1" d="M477.453 136.723C479.964 136.723 482 134.537 482 131.84C482 129.143 479.964 126.957 477.453 126.957C474.942 126.957 472.906 129.143 472.906 131.84C472.906 134.537 474.942 136.723 477.453 136.723Z" fill="#3B4C68"/>
<path opacity="0.1" d="M4.54716 179.042C7.05849 179.042 9.09433 176.856 9.09433 174.159C9.09433 171.463 7.05849 169.276 4.54716 169.276C2.03583 169.276 0 171.463 0 174.159C0 176.856 2.03583 179.042 4.54716 179.042Z" fill="#3B4C68"/>
<path opacity="0.1" d="M43.956 179.042C46.4673 179.042 48.5032 176.856 48.5032 174.159C48.5032 171.463 46.4673 169.276 43.956 169.276C41.4447 169.276 39.4088 171.463 39.4088 174.159C39.4088 176.856 41.4447 179.042 43.956 179.042Z" fill="#3B4C68"/>
<path opacity="0.1" d="M83.3648 179.042C85.8762 179.042 87.912 176.856 87.912 174.159C87.912 171.463 85.8762 169.276 83.3648 169.276C80.8535 169.276 78.8177 171.463 78.8177 174.159C78.8177 176.856 80.8535 179.042 83.3648 179.042Z" fill="#3B4C68"/>
<path opacity="0.1" d="M122.774 179.042C125.285 179.042 127.321 176.856 127.321 174.159C127.321 171.463 125.285 169.276 122.774 169.276C120.262 169.276 118.226 171.463 118.226 174.159C118.226 176.856 120.262 179.042 122.774 179.042Z" fill="#3B4C68"/>
<path opacity="0.1" d="M162.182 179.042C164.694 179.042 166.73 176.856 166.73 174.159C166.73 171.463 164.694 169.276 162.182 169.276C159.671 169.276 157.635 171.463 157.635 174.159C157.635 176.856 159.671 179.042 162.182 179.042Z" fill="#3B4C68"/>
<path opacity="0.1" d="M201.591 179.042C204.103 179.042 206.138 176.856 206.138 174.159C206.138 171.463 204.103 169.276 201.591 169.276C199.08 169.276 197.044 171.463 197.044 174.159C197.044 176.856 199.08 179.042 201.591 179.042Z" fill="#3B4C68"/>
<path opacity="0.1" d="M241 179.042C243.511 179.042 245.547 176.856 245.547 174.159C245.547 171.463 243.511 169.276 241 169.276C238.489 169.276 236.453 171.463 236.453 174.159C236.453 176.856 238.489 179.042 241 179.042Z" fill="#3B4C68"/>
<path opacity="0.1" d="M280.409 179.042C282.92 179.042 284.956 176.856 284.956 174.159C284.956 171.463 282.92 169.276 280.409 169.276C277.898 169.276 275.862 171.463 275.862 174.159C275.862 176.856 277.898 179.042 280.409 179.042Z" fill="#3B4C68"/>
<path opacity="0.1" d="M319.818 179.042C322.329 179.042 324.365 176.856 324.365 174.159C324.365 171.463 322.329 169.276 319.818 169.276C317.306 169.276 315.27 171.463 315.27 174.159C315.27 176.856 317.306 179.042 319.818 179.042Z" fill="#3B4C68"/>
<path opacity="0.1" d="M359.226 179.042C361.738 179.042 363.774 176.856 363.774 174.159C363.774 171.463 361.738 169.276 359.226 169.276C356.715 169.276 354.679 171.463 354.679 174.159C354.679 176.856 356.715 179.042 359.226 179.042Z" fill="#3B4C68"/>
<path opacity="0.1" d="M398.635 179.042C401.147 179.042 403.182 176.856 403.182 174.159C403.182 171.463 401.147 169.276 398.635 169.276C396.124 169.276 394.088 171.463 394.088 174.159C394.088 176.856 396.124 179.042 398.635 179.042Z" fill="#3B4C68"/>
<path opacity="0.1" d="M438.044 179.042C440.555 179.042 442.591 176.856 442.591 174.159C442.591 171.463 440.555 169.276 438.044 169.276C435.533 169.276 433.497 171.463 433.497 174.159C433.497 176.856 435.533 179.042 438.044 179.042Z" fill="#3B4C68"/>
<path opacity="0.1" d="M477.453 179.042C479.964 179.042 482 176.856 482 174.159C482 171.463 479.964 169.276 477.453 169.276C474.942 169.276 472.906 171.463 472.906 174.159C472.906 176.856 474.942 179.042 477.453 179.042Z" fill="#3B4C68"/>
<path opacity="0.1" d="M4.54716 221.362C7.05849 221.362 9.09433 219.175 9.09433 216.479C9.09433 213.782 7.05849 211.596 4.54716 211.596C2.03583 211.596 0 213.782 0 216.479C0 219.175 2.03583 221.362 4.54716 221.362Z" fill="#3B4C68"/>
<path opacity="0.1" d="M43.956 221.362C46.4673 221.362 48.5032 219.175 48.5032 216.479C48.5032 213.782 46.4673 211.596 43.956 211.596C41.4447 211.596 39.4088 213.782 39.4088 216.479C39.4088 219.175 41.4447 221.362 43.956 221.362Z" fill="#3B4C68"/>
<path opacity="0.1" d="M83.3648 221.362C85.8762 221.362 87.912 219.175 87.912 216.479C87.912 213.782 85.8762 211.596 83.3648 211.596C80.8535 211.596 78.8177 213.782 78.8177 216.479C78.8177 219.175 80.8535 221.362 83.3648 221.362Z" fill="#3B4C68"/>
<path opacity="0.1" d="M122.774 221.362C125.285 221.362 127.321 219.175 127.321 216.479C127.321 213.782 125.285 211.596 122.774 211.596C120.262 211.596 118.226 213.782 118.226 216.479C118.226 219.175 120.262 221.362 122.774 221.362Z" fill="#3B4C68"/>
<path opacity="0.1" d="M162.182 221.362C164.694 221.362 166.73 219.175 166.73 216.479C166.73 213.782 164.694 211.596 162.182 211.596C159.671 211.596 157.635 213.782 157.635 216.479C157.635 219.175 159.671 221.362 162.182 221.362Z" fill="#3B4C68"/>
<path opacity="0.1" d="M201.591 221.362C204.103 221.362 206.138 219.175 206.138 216.479C206.138 213.782 204.103 211.596 201.591 211.596C199.08 211.596 197.044 213.782 197.044 216.479C197.044 219.175 199.08 221.362 201.591 221.362Z" fill="#3B4C68"/>
<path opacity="0.1" d="M241 221.362C243.511 221.362 245.547 219.175 245.547 216.479C245.547 213.782 243.511 211.596 241 211.596C238.489 211.596 236.453 213.782 236.453 216.479C236.453 219.175 238.489 221.362 241 221.362Z" fill="#3B4C68"/>
<path opacity="0.1" d="M280.409 221.362C282.92 221.362 284.956 219.175 284.956 216.479C284.956 213.782 282.92 211.596 280.409 211.596C277.898 211.596 275.862 213.782 275.862 216.479C275.862 219.175 277.898 221.362 280.409 221.362Z" fill="#3B4C68"/>
<path opacity="0.1" d="M319.818 221.362C322.329 221.362 324.365 219.175 324.365 216.479C324.365 213.782 322.329 211.596 319.818 211.596C317.306 211.596 315.27 213.782 315.27 216.479C315.27 219.175 317.306 221.362 319.818 221.362Z" fill="#3B4C68"/>
<path opacity="0.1" d="M359.226 221.362C361.738 221.362 363.774 219.175 363.774 216.479C363.774 213.782 361.738 211.596 359.226 211.596C356.715 211.596 354.679 213.782 354.679 216.479C354.679 219.175 356.715 221.362 359.226 221.362Z" fill="#3B4C68"/>
<path opacity="0.1" d="M398.635 221.362C401.147 221.362 403.182 219.175 403.182 216.479C403.182 213.782 401.147 211.596 398.635 211.596C396.124 211.596 394.088 213.782 394.088 216.479C394.088 219.175 396.124 221.362 398.635 221.362Z" fill="#3B4C68"/>
<path opacity="0.1" d="M438.044 221.362C440.555 221.362 442.591 219.175 442.591 216.479C442.591 213.782 440.555 211.596 438.044 211.596C435.533 211.596 433.497 213.782 433.497 216.479C433.497 219.175 435.533 221.362 438.044 221.362Z" fill="#3B4C68"/>
<path opacity="0.1" d="M477.453 221.362C479.964 221.362 482 219.175 482 216.479C482 213.782 479.964 211.596 477.453 211.596C474.942 211.596 472.906 213.782 472.906 216.479C472.906 219.175 474.942 221.362 477.453 221.362Z" fill="#3B4C68"/>
<path opacity="0.1" d="M4.54716 263.681C7.05849 263.681 9.09433 261.495 9.09433 258.798C9.09433 256.101 7.05849 253.915 4.54716 253.915C2.03583 253.915 0 256.101 0 258.798C0 261.495 2.03583 263.681 4.54716 263.681Z" fill="#3B4C68"/>
<path opacity="0.1" d="M43.956 263.681C46.4673 263.681 48.5032 261.495 48.5032 258.798C48.5032 256.101 46.4673 253.915 43.956 253.915C41.4447 253.915 39.4088 256.101 39.4088 258.798C39.4088 261.495 41.4447 263.681 43.956 263.681Z" fill="#3B4C68"/>
<path opacity="0.1" d="M83.3648 263.681C85.8762 263.681 87.912 261.495 87.912 258.798C87.912 256.101 85.8762 253.915 83.3648 253.915C80.8535 253.915 78.8177 256.101 78.8177 258.798C78.8177 261.495 80.8535 263.681 83.3648 263.681Z" fill="#3B4C68"/>
<path opacity="0.1" d="M122.774 263.681C125.285 263.681 127.321 261.495 127.321 258.798C127.321 256.101 125.285 253.915 122.774 253.915C120.262 253.915 118.226 256.101 118.226 258.798C118.226 261.495 120.262 263.681 122.774 263.681Z" fill="#3B4C68"/>
<path opacity="0.1" d="M162.182 263.681C164.694 263.681 166.73 261.495 166.73 258.798C166.73 256.101 164.694 253.915 162.182 253.915C159.671 253.915 157.635 256.101 157.635 258.798C157.635 261.495 159.671 263.681 162.182 263.681Z" fill="#3B4C68"/>
<path opacity="0.1" d="M201.591 263.681C204.103 263.681 206.138 261.495 206.138 258.798C206.138 256.101 204.103 253.915 201.591 253.915C199.08 253.915 197.044 256.101 197.044 258.798C197.044 261.495 199.08 263.681 201.591 263.681Z" fill="#3B4C68"/>
<path opacity="0.1" d="M241 263.681C243.511 263.681 245.547 261.495 245.547 258.798C245.547 256.101 243.511 253.915 241 253.915C238.489 253.915 236.453 256.101 236.453 258.798C236.453 261.495 238.489 263.681 241 263.681Z" fill="#3B4C68"/>
<path opacity="0.1" d="M280.409 263.681C282.92 263.681 284.956 261.495 284.956 258.798C284.956 256.101 282.92 253.915 280.409 253.915C277.898 253.915 275.862 256.101 275.862 258.798C275.862 261.495 277.898 263.681 280.409 263.681Z" fill="#3B4C68"/>
<path opacity="0.1" d="M319.818 263.681C322.329 263.681 324.365 261.495 324.365 258.798C324.365 256.101 322.329 253.915 319.818 253.915C317.306 253.915 315.27 256.101 315.27 258.798C315.27 261.495 317.306 263.681 319.818 263.681Z" fill="#3B4C68"/>
<path opacity="0.1" d="M359.226 263.681C361.738 263.681 363.774 261.495 363.774 258.798C363.774 256.101 361.738 253.915 359.226 253.915C356.715 253.915 354.679 256.101 354.679 258.798C354.679 261.495 356.715 263.681 359.226 263.681Z" fill="#3B4C68"/>
<path opacity="0.1" d="M398.635 263.681C401.147 263.681 403.182 261.495 403.182 258.798C403.182 256.101 401.147 253.915 398.635 253.915C396.124 253.915 394.088 256.101 394.088 258.798C394.088 261.495 396.124 263.681 398.635 263.681Z" fill="#3B4C68"/>
<path opacity="0.1" d="M438.044 263.681C440.555 263.681 442.591 261.495 442.591 258.798C442.591 256.101 440.555 253.915 438.044 253.915C435.533 253.915 433.497 256.101 433.497 258.798C433.497 261.495 435.533 263.681 438.044 263.681Z" fill="#3B4C68"/>
<path opacity="0.1" d="M477.453 263.681C479.964 263.681 482 261.495 482 258.798C482 256.101 479.964 253.915 477.453 253.915C474.942 253.915 472.906 256.101 472.906 258.798C472.906 261.495 474.942 263.681 477.453 263.681Z" fill="#3B4C68"/>
<path opacity="0.1" d="M4.54716 306C7.05849 306 9.09433 303.814 9.09433 301.117C9.09433 298.42 7.05849 296.234 4.54716 296.234C2.03583 296.234 0 298.42 0 301.117C0 303.814 2.03583 306 4.54716 306Z" fill="#3B4C68"/>
<path opacity="0.1" d="M43.956 306C46.4673 306 48.5032 303.814 48.5032 301.117C48.5032 298.42 46.4673 296.234 43.956 296.234C41.4447 296.234 39.4088 298.42 39.4088 301.117C39.4088 303.814 41.4447 306 43.956 306Z" fill="#3B4C68"/>
<path opacity="0.1" d="M83.3648 306C85.8762 306 87.912 303.814 87.912 301.117C87.912 298.42 85.8762 296.234 83.3648 296.234C80.8535 296.234 78.8177 298.42 78.8177 301.117C78.8177 303.814 80.8535 306 83.3648 306Z" fill="#3B4C68"/>
<path opacity="0.1" d="M122.774 306C125.285 306 127.321 303.814 127.321 301.117C127.321 298.42 125.285 296.234 122.774 296.234C120.262 296.234 118.226 298.42 118.226 301.117C118.226 303.814 120.262 306 122.774 306Z" fill="#3B4C68"/>
<path opacity="0.1" d="M162.182 306C164.694 306 166.73 303.814 166.73 301.117C166.73 298.42 164.694 296.234 162.182 296.234C159.671 296.234 157.635 298.42 157.635 301.117C157.635 303.814 159.671 306 162.182 306Z" fill="#3B4C68"/>
<path opacity="0.1" d="M201.591 306C204.103 306 206.138 303.814 206.138 301.117C206.138 298.42 204.103 296.234 201.591 296.234C199.08 296.234 197.044 298.42 197.044 301.117C197.044 303.814 199.08 306 201.591 306Z" fill="#3B4C68"/>
<path opacity="0.1" d="M241 306C243.511 306 245.547 303.814 245.547 301.117C245.547 298.42 243.511 296.234 241 296.234C238.489 296.234 236.453 298.42 236.453 301.117C236.453 303.814 238.489 306 241 306Z" fill="#3B4C68"/>
<path opacity="0.1" d="M280.409 306C282.92 306 284.956 303.814 284.956 301.117C284.956 298.42 282.92 296.234 280.409 296.234C277.898 296.234 275.862 298.42 275.862 301.117C275.862 303.814 277.898 306 280.409 306Z" fill="#3B4C68"/>
<path opacity="0.1" d="M319.818 306C322.329 306 324.365 303.814 324.365 301.117C324.365 298.42 322.329 296.234 319.818 296.234C317.306 296.234 315.27 298.42 315.27 301.117C315.27 303.814 317.306 306 319.818 306Z" fill="#3B4C68"/>
<path opacity="0.1" d="M359.226 306C361.738 306 363.774 303.814 363.774 301.117C363.774 298.42 361.738 296.234 359.226 296.234C356.715 296.234 354.679 298.42 354.679 301.117C354.679 303.814 356.715 306 359.226 306Z" fill="#3B4C68"/>
<path opacity="0.1" d="M398.635 306C401.147 306 403.182 303.814 403.182 301.117C403.182 298.42 401.147 296.234 398.635 296.234C396.124 296.234 394.088 298.42 394.088 301.117C394.088 303.814 396.124 306 398.635 306Z" fill="#3B4C68"/>
<path opacity="0.1" d="M438.044 306C440.555 306 442.591 303.814 442.591 301.117C442.591 298.42 440.555 296.234 438.044 296.234C435.533 296.234 433.497 298.42 433.497 301.117C433.497 303.814 435.533 306 438.044 306Z" fill="#3B4C68"/>
<path opacity="0.1" d="M477.453 306C479.964 306 482 303.814 482 301.117C482 298.42 479.964 296.234 477.453 296.234C474.942 296.234 472.906 298.42 472.906 301.117C472.906 303.814 474.942 306 477.453 306Z" fill="#3B4C68"/>
</svg>
