<svg width="483" height="303" viewBox="0 0 483 303" fill="none" xmlns="http://www.w3.org/2000/svg">
<path opacity="0.1" d="M4.9389 10.4731C7.44855 10.4731 9.48303 8.32136 9.48303 5.66699C9.48303 3.01263 7.44855 0.86084 4.9389 0.86084C2.42925 0.86084 0.394775 3.01263 0.394775 5.66699C0.394775 8.32136 2.42925 10.4731 4.9389 10.4731Z" fill="#3B4C68"/>
<path opacity="0.1" d="M44.3215 10.4731C46.8312 10.4731 48.8657 8.32136 48.8657 5.66699C48.8657 3.01263 46.8312 0.86084 44.3215 0.86084C41.8118 0.86084 39.7773 3.01263 39.7773 5.66699C39.7773 8.32136 41.8118 10.4731 44.3215 10.4731Z" fill="#3B4C68"/>
<path opacity="0.1" d="M83.7041 10.4731C86.2138 10.4731 88.2483 8.32136 88.2483 5.66699C88.2483 3.01263 86.2138 0.86084 83.7041 0.86084C81.1945 0.86084 79.16 3.01263 79.16 5.66699C79.16 8.32136 81.1945 10.4731 83.7041 10.4731Z" fill="#3B4C68"/>
<path opacity="0.1" d="M123.087 10.4731C125.596 10.4731 127.631 8.32136 127.631 5.66699C127.631 3.01263 125.596 0.86084 123.087 0.86084C120.577 0.86084 118.543 3.01263 118.543 5.66699C118.543 8.32136 120.577 10.4731 123.087 10.4731Z" fill="#3B4C68"/>
<path opacity="0.1" d="M162.469 10.4731C164.979 10.4731 167.014 8.32136 167.014 5.66699C167.014 3.01263 164.979 0.86084 162.469 0.86084C159.96 0.86084 157.925 3.01263 157.925 5.66699C157.925 8.32136 159.96 10.4731 162.469 10.4731Z" fill="#3B4C68"/>
<path opacity="0.1" d="M201.852 10.4731C204.362 10.4731 206.396 8.32136 206.396 5.66699C206.396 3.01263 204.362 0.86084 201.852 0.86084C199.342 0.86084 197.308 3.01263 197.308 5.66699C197.308 8.32136 199.342 10.4731 201.852 10.4731Z" fill="#3B4C68"/>
<path opacity="0.1" d="M241.235 10.4731C243.744 10.4731 245.779 8.32136 245.779 5.66699C245.779 3.01263 243.744 0.86084 241.235 0.86084C238.725 0.86084 236.69 3.01263 236.69 5.66699C236.69 8.32136 238.725 10.4731 241.235 10.4731Z" fill="#3B4C68"/>
<path opacity="0.1" d="M280.617 10.4731C283.127 10.4731 285.161 8.32136 285.161 5.66699C285.161 3.01263 283.127 0.86084 280.617 0.86084C278.108 0.86084 276.073 3.01263 276.073 5.66699C276.073 8.32136 278.108 10.4731 280.617 10.4731Z" fill="#3B4C68"/>
<path opacity="0.1" d="M320 10.4731C322.51 10.4731 324.544 8.32136 324.544 5.66699C324.544 3.01263 322.51 0.86084 320 0.86084C317.49 0.86084 315.456 3.01263 315.456 5.66699C315.456 8.32136 317.49 10.4731 320 10.4731Z" fill="#3B4C68"/>
<path opacity="0.1" d="M359.382 10.4731C361.892 10.4731 363.927 8.32136 363.927 5.66699C363.927 3.01263 361.892 0.86084 359.382 0.86084C356.873 0.86084 354.838 3.01263 354.838 5.66699C354.838 8.32136 356.873 10.4731 359.382 10.4731Z" fill="#3B4C68"/>
<path opacity="0.1" d="M398.765 10.4731C401.275 10.4731 403.309 8.32136 403.309 5.66699C403.309 3.01263 401.275 0.86084 398.765 0.86084C396.255 0.86084 394.221 3.01263 394.221 5.66699C394.221 8.32136 396.255 10.4731 398.765 10.4731Z" fill="#3B4C68"/>
<path opacity="0.1" d="M438.148 10.4731C440.657 10.4731 442.692 8.32136 442.692 5.66699C442.692 3.01263 440.657 0.86084 438.148 0.86084C435.638 0.86084 433.604 3.01263 433.604 5.66699C433.604 8.32136 435.638 10.4731 438.148 10.4731Z" fill="#3B4C68"/>
<path opacity="0.1" d="M477.53 10.4731C480.04 10.4731 482.074 8.32136 482.074 5.66699C482.074 3.01263 480.04 0.86084 477.53 0.86084C475.021 0.86084 472.986 3.01263 472.986 5.66699C472.986 8.32136 475.021 10.4731 477.53 10.4731Z" fill="#3B4C68"/>
<path opacity="0.1" d="M4.9389 52.1289C7.44855 52.1289 9.48303 49.9769 9.48303 47.3223C9.48303 44.6676 7.44855 42.5156 4.9389 42.5156C2.42925 42.5156 0.394775 44.6676 0.394775 47.3223C0.394775 49.9769 2.42925 52.1289 4.9389 52.1289Z" fill="#3B4C68"/>
<path opacity="0.1" d="M44.3215 52.1289C46.8312 52.1289 48.8657 49.9769 48.8657 47.3223C48.8657 44.6676 46.8312 42.5156 44.3215 42.5156C41.8119 42.5156 39.7774 44.6676 39.7774 47.3223C39.7774 49.9769 41.8119 52.1289 44.3215 52.1289Z" fill="#3B4C68"/>
<path opacity="0.1" d="M83.7041 52.1289C86.2138 52.1289 88.2483 49.9769 88.2483 47.3223C88.2483 44.6676 86.2138 42.5156 83.7041 42.5156C81.1945 42.5156 79.16 44.6676 79.16 47.3223C79.16 49.9769 81.1945 52.1289 83.7041 52.1289Z" fill="#3B4C68"/>
<path opacity="0.1" d="M123.087 52.1289C125.596 52.1289 127.631 49.9769 127.631 47.3223C127.631 44.6676 125.596 42.5156 123.087 42.5156C120.577 42.5156 118.543 44.6676 118.543 47.3223C118.543 49.9769 120.577 52.1289 123.087 52.1289Z" fill="#3B4C68"/>
<path opacity="0.1" d="M162.469 52.1289C164.979 52.1289 167.013 49.9769 167.013 47.3223C167.013 44.6676 164.979 42.5156 162.469 42.5156C159.96 42.5156 157.925 44.6676 157.925 47.3223C157.925 49.9769 159.96 52.1289 162.469 52.1289Z" fill="#3B4C68"/>
<path opacity="0.1" d="M201.852 52.1289C204.362 52.1289 206.396 49.9769 206.396 47.3223C206.396 44.6676 204.362 42.5156 201.852 42.5156C199.342 42.5156 197.308 44.6676 197.308 47.3223C197.308 49.9769 199.342 52.1289 201.852 52.1289Z" fill="#3B4C68"/>
<path opacity="0.1" d="M241.235 52.1289C243.744 52.1289 245.779 49.9769 245.779 47.3223C245.779 44.6676 243.744 42.5156 241.235 42.5156C238.725 42.5156 236.69 44.6676 236.69 47.3223C236.69 49.9769 238.725 52.1289 241.235 52.1289Z" fill="#3B4C68"/>
<path opacity="0.1" d="M280.617 52.1289C283.127 52.1289 285.161 49.9769 285.161 47.3223C285.161 44.6676 283.127 42.5156 280.617 42.5156C278.108 42.5156 276.073 44.6676 276.073 47.3223C276.073 49.9769 278.108 52.1289 280.617 52.1289Z" fill="#3B4C68"/>
<path opacity="0.1" d="M320 52.1289C322.509 52.1289 324.544 49.9769 324.544 47.3223C324.544 44.6676 322.509 42.5156 320 42.5156C317.49 42.5156 315.456 44.6676 315.456 47.3223C315.456 49.9769 317.49 52.1289 320 52.1289Z" fill="#3B4C68"/>
<path opacity="0.1" d="M359.382 52.1289C361.892 52.1289 363.927 49.9769 363.927 47.3223C363.927 44.6676 361.892 42.5156 359.382 42.5156C356.873 42.5156 354.838 44.6676 354.838 47.3223C354.838 49.9769 356.873 52.1289 359.382 52.1289Z" fill="#3B4C68"/>
<path opacity="0.1" d="M398.765 52.1289C401.275 52.1289 403.309 49.9769 403.309 47.3223C403.309 44.6676 401.275 42.5156 398.765 42.5156C396.255 42.5156 394.221 44.6676 394.221 47.3223C394.221 49.9769 396.255 52.1289 398.765 52.1289Z" fill="#3B4C68"/>
<path opacity="0.1" d="M438.148 52.1289C440.657 52.1289 442.692 49.9769 442.692 47.3223C442.692 44.6676 440.657 42.5156 438.148 42.5156C435.638 42.5156 433.604 44.6676 433.604 47.3223C433.604 49.9769 435.638 52.1289 438.148 52.1289Z" fill="#3B4C68"/>
<path opacity="0.1" d="M477.53 52.1289C480.04 52.1289 482.074 49.9769 482.074 47.3223C482.074 44.6676 480.04 42.5156 477.53 42.5156C475.021 42.5156 472.986 44.6676 472.986 47.3223C472.986 49.9769 475.021 52.1289 477.53 52.1289Z" fill="#3B4C68"/>
<path opacity="0.1" d="M4.9389 93.7842C7.44855 93.7842 9.48303 91.6322 9.48303 88.9775C9.48303 86.3229 7.44855 84.1709 4.9389 84.1709C2.42925 84.1709 0.394775 86.3229 0.394775 88.9775C0.394775 91.6322 2.42925 93.7842 4.9389 93.7842Z" fill="#3B4C68"/>
<path opacity="0.1" d="M44.3215 93.7842C46.8312 93.7842 48.8657 91.6322 48.8657 88.9775C48.8657 86.3229 46.8312 84.1709 44.3215 84.1709C41.8119 84.1709 39.7774 86.3229 39.7774 88.9775C39.7774 91.6322 41.8119 93.7842 44.3215 93.7842Z" fill="#3B4C68"/>
<path opacity="0.1" d="M83.7041 93.7842C86.2138 93.7842 88.2483 91.6322 88.2483 88.9775C88.2483 86.3229 86.2138 84.1709 83.7041 84.1709C81.1945 84.1709 79.16 86.3229 79.16 88.9775C79.16 91.6322 81.1945 93.7842 83.7041 93.7842Z" fill="#3B4C68"/>
<path opacity="0.1" d="M123.087 93.7842C125.596 93.7842 127.631 91.6322 127.631 88.9775C127.631 86.3229 125.596 84.1709 123.087 84.1709C120.577 84.1709 118.543 86.3229 118.543 88.9775C118.543 91.6322 120.577 93.7842 123.087 93.7842Z" fill="#3B4C68"/>
<path opacity="0.1" d="M162.469 93.7842C164.979 93.7842 167.013 91.6322 167.013 88.9775C167.013 86.3229 164.979 84.1709 162.469 84.1709C159.96 84.1709 157.925 86.3229 157.925 88.9775C157.925 91.6322 159.96 93.7842 162.469 93.7842Z" fill="#3B4C68"/>
<path opacity="0.1" d="M201.852 93.7842C204.362 93.7842 206.396 91.6322 206.396 88.9775C206.396 86.3229 204.362 84.1709 201.852 84.1709C199.342 84.1709 197.308 86.3229 197.308 88.9775C197.308 91.6322 199.342 93.7842 201.852 93.7842Z" fill="#3B4C68"/>
<path opacity="0.1" d="M241.235 93.7842C243.744 93.7842 245.779 91.6322 245.779 88.9775C245.779 86.3229 243.744 84.1709 241.235 84.1709C238.725 84.1709 236.69 86.3229 236.69 88.9775C236.69 91.6322 238.725 93.7842 241.235 93.7842Z" fill="#3B4C68"/>
<path opacity="0.1" d="M280.617 93.7842C283.127 93.7842 285.161 91.6322 285.161 88.9775C285.161 86.3229 283.127 84.1709 280.617 84.1709C278.108 84.1709 276.073 86.3229 276.073 88.9775C276.073 91.6322 278.108 93.7842 280.617 93.7842Z" fill="#3B4C68"/>
<path opacity="0.1" d="M320 93.7842C322.509 93.7842 324.544 91.6322 324.544 88.9775C324.544 86.3229 322.509 84.1709 320 84.1709C317.49 84.1709 315.456 86.3229 315.456 88.9775C315.456 91.6322 317.49 93.7842 320 93.7842Z" fill="#3B4C68"/>
<path opacity="0.1" d="M359.382 93.7842C361.892 93.7842 363.927 91.6322 363.927 88.9775C363.927 86.3229 361.892 84.1709 359.382 84.1709C356.873 84.1709 354.838 86.3229 354.838 88.9775C354.838 91.6322 356.873 93.7842 359.382 93.7842Z" fill="#3B4C68"/>
<path opacity="0.1" d="M398.765 93.7842C401.275 93.7842 403.309 91.6322 403.309 88.9775C403.309 86.3229 401.275 84.1709 398.765 84.1709C396.255 84.1709 394.221 86.3229 394.221 88.9775C394.221 91.6322 396.255 93.7842 398.765 93.7842Z" fill="#3B4C68"/>
<path opacity="0.1" d="M438.148 93.7842C440.657 93.7842 442.692 91.6322 442.692 88.9775C442.692 86.3229 440.657 84.1709 438.148 84.1709C435.638 84.1709 433.604 86.3229 433.604 88.9775C433.604 91.6322 435.638 93.7842 438.148 93.7842Z" fill="#3B4C68"/>
<path opacity="0.1" d="M477.53 93.7842C480.04 93.7842 482.074 91.6322 482.074 88.9775C482.074 86.3229 480.04 84.1709 477.53 84.1709C475.021 84.1709 472.986 86.3229 472.986 88.9775C472.986 91.6322 475.021 93.7842 477.53 93.7842Z" fill="#3B4C68"/>
<path opacity="0.1" d="M4.9389 135.438C7.44855 135.438 9.48303 133.287 9.48303 130.632C9.48303 127.978 7.44855 125.826 4.9389 125.826C2.42925 125.826 0.394775 127.978 0.394775 130.632C0.394775 133.287 2.42925 135.438 4.9389 135.438Z" fill="#3B4C68"/>
<path opacity="0.1" d="M44.3215 135.438C46.8312 135.438 48.8657 133.287 48.8657 130.632C48.8657 127.978 46.8312 125.826 44.3215 125.826C41.8119 125.826 39.7774 127.978 39.7774 130.632C39.7774 133.287 41.8119 135.438 44.3215 135.438Z" fill="#3B4C68"/>
<path opacity="0.1" d="M83.7041 135.438C86.2138 135.438 88.2483 133.287 88.2483 130.632C88.2483 127.978 86.2138 125.826 83.7041 125.826C81.1945 125.826 79.16 127.978 79.16 130.632C79.16 133.287 81.1945 135.438 83.7041 135.438Z" fill="#3B4C68"/>
<path opacity="0.1" d="M123.087 135.438C125.596 135.438 127.631 133.287 127.631 130.632C127.631 127.978 125.596 125.826 123.087 125.826C120.577 125.826 118.543 127.978 118.543 130.632C118.543 133.287 120.577 135.438 123.087 135.438Z" fill="#3B4C68"/>
<path opacity="0.1" d="M162.469 135.438C164.979 135.438 167.013 133.287 167.013 130.632C167.013 127.978 164.979 125.826 162.469 125.826C159.96 125.826 157.925 127.978 157.925 130.632C157.925 133.287 159.96 135.438 162.469 135.438Z" fill="#3B4C68"/>
<path opacity="0.1" d="M201.852 135.438C204.362 135.438 206.396 133.287 206.396 130.632C206.396 127.978 204.362 125.826 201.852 125.826C199.342 125.826 197.308 127.978 197.308 130.632C197.308 133.287 199.342 135.438 201.852 135.438Z" fill="#3B4C68"/>
<path opacity="0.1" d="M241.235 135.438C243.744 135.438 245.779 133.287 245.779 130.632C245.779 127.978 243.744 125.826 241.235 125.826C238.725 125.826 236.69 127.978 236.69 130.632C236.69 133.287 238.725 135.438 241.235 135.438Z" fill="#3B4C68"/>
<path opacity="0.1" d="M280.617 135.438C283.127 135.438 285.161 133.287 285.161 130.632C285.161 127.978 283.127 125.826 280.617 125.826C278.108 125.826 276.073 127.978 276.073 130.632C276.073 133.287 278.108 135.438 280.617 135.438Z" fill="#3B4C68"/>
<path opacity="0.1" d="M320 135.438C322.509 135.438 324.544 133.287 324.544 130.632C324.544 127.978 322.509 125.826 320 125.826C317.49 125.826 315.456 127.978 315.456 130.632C315.456 133.287 317.49 135.438 320 135.438Z" fill="#3B4C68"/>
<path opacity="0.1" d="M359.382 135.438C361.892 135.438 363.927 133.287 363.927 130.632C363.927 127.978 361.892 125.826 359.382 125.826C356.873 125.826 354.838 127.978 354.838 130.632C354.838 133.287 356.873 135.438 359.382 135.438Z" fill="#3B4C68"/>
<path opacity="0.1" d="M398.765 135.438C401.275 135.438 403.309 133.287 403.309 130.632C403.309 127.978 401.275 125.826 398.765 125.826C396.255 125.826 394.221 127.978 394.221 130.632C394.221 133.287 396.255 135.438 398.765 135.438Z" fill="#3B4C68"/>
<path opacity="0.1" d="M438.148 135.438C440.657 135.438 442.692 133.287 442.692 130.632C442.692 127.978 440.657 125.826 438.148 125.826C435.638 125.826 433.604 127.978 433.604 130.632C433.604 133.287 435.638 135.438 438.148 135.438Z" fill="#3B4C68"/>
<path opacity="0.1" d="M477.53 135.438C480.04 135.438 482.074 133.287 482.074 130.632C482.074 127.978 480.04 125.826 477.53 125.826C475.021 125.826 472.986 127.978 472.986 130.632C472.986 133.287 475.021 135.438 477.53 135.438Z" fill="#3B4C68"/>
<path opacity="0.1" d="M4.9389 177.094C7.44855 177.094 9.48303 174.942 9.48303 172.287C9.48303 169.633 7.44855 167.481 4.9389 167.481C2.42925 167.481 0.394775 169.633 0.394775 172.287C0.394775 174.942 2.42925 177.094 4.9389 177.094Z" fill="#3B4C68"/>
<path opacity="0.1" d="M44.3215 177.094C46.8312 177.094 48.8657 174.942 48.8657 172.287C48.8657 169.633 46.8312 167.481 44.3215 167.481C41.8119 167.481 39.7774 169.633 39.7774 172.287C39.7774 174.942 41.8119 177.094 44.3215 177.094Z" fill="#3B4C68"/>
<path opacity="0.1" d="M83.7041 177.094C86.2138 177.094 88.2483 174.942 88.2483 172.287C88.2483 169.633 86.2138 167.481 83.7041 167.481C81.1945 167.481 79.16 169.633 79.16 172.287C79.16 174.942 81.1945 177.094 83.7041 177.094Z" fill="#3B4C68"/>
<path opacity="0.1" d="M123.087 177.094C125.596 177.094 127.631 174.942 127.631 172.287C127.631 169.633 125.596 167.481 123.087 167.481C120.577 167.481 118.543 169.633 118.543 172.287C118.543 174.942 120.577 177.094 123.087 177.094Z" fill="#3B4C68"/>
<path opacity="0.1" d="M162.469 177.094C164.979 177.094 167.013 174.942 167.013 172.287C167.013 169.633 164.979 167.481 162.469 167.481C159.96 167.481 157.925 169.633 157.925 172.287C157.925 174.942 159.96 177.094 162.469 177.094Z" fill="#3B4C68"/>
<path opacity="0.1" d="M201.852 177.094C204.362 177.094 206.396 174.942 206.396 172.287C206.396 169.633 204.362 167.481 201.852 167.481C199.342 167.481 197.308 169.633 197.308 172.287C197.308 174.942 199.342 177.094 201.852 177.094Z" fill="#3B4C68"/>
<path opacity="0.1" d="M241.235 177.094C243.744 177.094 245.779 174.942 245.779 172.287C245.779 169.633 243.744 167.481 241.235 167.481C238.725 167.481 236.69 169.633 236.69 172.287C236.69 174.942 238.725 177.094 241.235 177.094Z" fill="#3B4C68"/>
<path opacity="0.1" d="M280.617 177.094C283.127 177.094 285.161 174.942 285.161 172.287C285.161 169.633 283.127 167.481 280.617 167.481C278.108 167.481 276.073 169.633 276.073 172.287C276.073 174.942 278.108 177.094 280.617 177.094Z" fill="#3B4C68"/>
<path opacity="0.1" d="M320 177.094C322.509 177.094 324.544 174.942 324.544 172.287C324.544 169.633 322.509 167.481 320 167.481C317.49 167.481 315.456 169.633 315.456 172.287C315.456 174.942 317.49 177.094 320 177.094Z" fill="#3B4C68"/>
<path opacity="0.1" d="M359.382 177.094C361.892 177.094 363.927 174.942 363.927 172.287C363.927 169.633 361.892 167.481 359.382 167.481C356.873 167.481 354.838 169.633 354.838 172.287C354.838 174.942 356.873 177.094 359.382 177.094Z" fill="#3B4C68"/>
<path opacity="0.1" d="M398.765 177.094C401.275 177.094 403.309 174.942 403.309 172.287C403.309 169.633 401.275 167.481 398.765 167.481C396.255 167.481 394.221 169.633 394.221 172.287C394.221 174.942 396.255 177.094 398.765 177.094Z" fill="#3B4C68"/>
<path opacity="0.1" d="M438.148 177.094C440.657 177.094 442.692 174.942 442.692 172.287C442.692 169.633 440.657 167.481 438.148 167.481C435.638 167.481 433.604 169.633 433.604 172.287C433.604 174.942 435.638 177.094 438.148 177.094Z" fill="#3B4C68"/>
<path opacity="0.1" d="M477.53 177.094C480.04 177.094 482.074 174.942 482.074 172.287C482.074 169.633 480.04 167.481 477.53 167.481C475.021 167.481 472.986 169.633 472.986 172.287C472.986 174.942 475.021 177.094 477.53 177.094Z" fill="#3B4C68"/>
<path opacity="0.1" d="M4.9389 218.749C7.44855 218.749 9.48303 216.597 9.48303 213.943C9.48303 211.288 7.44855 209.136 4.9389 209.136C2.42925 209.136 0.394775 211.288 0.394775 213.943C0.394775 216.597 2.42925 218.749 4.9389 218.749Z" fill="#3B4C68"/>
<path opacity="0.1" d="M44.3215 218.749C46.8312 218.749 48.8657 216.597 48.8657 213.943C48.8657 211.288 46.8312 209.136 44.3215 209.136C41.8119 209.136 39.7774 211.288 39.7774 213.943C39.7774 216.597 41.8119 218.749 44.3215 218.749Z" fill="#3B4C68"/>
<path opacity="0.1" d="M83.7041 218.749C86.2138 218.749 88.2483 216.597 88.2483 213.943C88.2483 211.288 86.2138 209.136 83.7041 209.136C81.1945 209.136 79.16 211.288 79.16 213.943C79.16 216.597 81.1945 218.749 83.7041 218.749Z" fill="#3B4C68"/>
<path opacity="0.1" d="M123.087 218.749C125.596 218.749 127.631 216.597 127.631 213.943C127.631 211.288 125.596 209.136 123.087 209.136C120.577 209.136 118.543 211.288 118.543 213.943C118.543 216.597 120.577 218.749 123.087 218.749Z" fill="#3B4C68"/>
<path opacity="0.1" d="M162.469 218.749C164.979 218.749 167.013 216.597 167.013 213.943C167.013 211.288 164.979 209.136 162.469 209.136C159.96 209.136 157.925 211.288 157.925 213.943C157.925 216.597 159.96 218.749 162.469 218.749Z" fill="#3B4C68"/>
<path opacity="0.1" d="M201.852 218.749C204.362 218.749 206.396 216.597 206.396 213.943C206.396 211.288 204.362 209.136 201.852 209.136C199.342 209.136 197.308 211.288 197.308 213.943C197.308 216.597 199.342 218.749 201.852 218.749Z" fill="#3B4C68"/>
<path opacity="0.1" d="M241.235 218.749C243.744 218.749 245.779 216.597 245.779 213.943C245.779 211.288 243.744 209.136 241.235 209.136C238.725 209.136 236.69 211.288 236.69 213.943C236.69 216.597 238.725 218.749 241.235 218.749Z" fill="#3B4C68"/>
<path opacity="0.1" d="M280.617 218.749C283.127 218.749 285.161 216.597 285.161 213.943C285.161 211.288 283.127 209.136 280.617 209.136C278.108 209.136 276.073 211.288 276.073 213.943C276.073 216.597 278.108 218.749 280.617 218.749Z" fill="#3B4C68"/>
<path opacity="0.1" d="M320 218.749C322.509 218.749 324.544 216.597 324.544 213.943C324.544 211.288 322.509 209.136 320 209.136C317.49 209.136 315.456 211.288 315.456 213.943C315.456 216.597 317.49 218.749 320 218.749Z" fill="#3B4C68"/>
<path opacity="0.1" d="M359.382 218.749C361.892 218.749 363.927 216.597 363.927 213.943C363.927 211.288 361.892 209.136 359.382 209.136C356.873 209.136 354.838 211.288 354.838 213.943C354.838 216.597 356.873 218.749 359.382 218.749Z" fill="#3B4C68"/>
<path opacity="0.1" d="M398.765 218.749C401.275 218.749 403.309 216.597 403.309 213.943C403.309 211.288 401.275 209.136 398.765 209.136C396.255 209.136 394.221 211.288 394.221 213.943C394.221 216.597 396.255 218.749 398.765 218.749Z" fill="#3B4C68"/>
<path opacity="0.1" d="M438.148 218.749C440.657 218.749 442.692 216.597 442.692 213.943C442.692 211.288 440.657 209.136 438.148 209.136C435.638 209.136 433.604 211.288 433.604 213.943C433.604 216.597 435.638 218.749 438.148 218.749Z" fill="#3B4C68"/>
<path opacity="0.1" d="M477.53 218.749C480.04 218.749 482.074 216.597 482.074 213.943C482.074 211.288 480.04 209.136 477.53 209.136C475.021 209.136 472.986 211.288 472.986 213.943C472.986 216.597 475.021 218.749 477.53 218.749Z" fill="#3B4C68"/>
<path opacity="0.1" d="M4.9389 260.403C7.44855 260.403 9.48303 258.252 9.48303 255.597C9.48303 252.943 7.44855 250.791 4.9389 250.791C2.42925 250.791 0.394775 252.943 0.394775 255.597C0.394775 258.252 2.42925 260.403 4.9389 260.403Z" fill="#3B4C68"/>
<path opacity="0.1" d="M44.3215 260.403C46.8312 260.403 48.8657 258.252 48.8657 255.597C48.8657 252.943 46.8312 250.791 44.3215 250.791C41.8119 250.791 39.7774 252.943 39.7774 255.597C39.7774 258.252 41.8119 260.403 44.3215 260.403Z" fill="#3B4C68"/>
<path opacity="0.1" d="M83.7041 260.403C86.2138 260.403 88.2483 258.252 88.2483 255.597C88.2483 252.943 86.2138 250.791 83.7041 250.791C81.1945 250.791 79.16 252.943 79.16 255.597C79.16 258.252 81.1945 260.403 83.7041 260.403Z" fill="#3B4C68"/>
<path opacity="0.1" d="M123.087 260.403C125.596 260.403 127.631 258.252 127.631 255.597C127.631 252.943 125.596 250.791 123.087 250.791C120.577 250.791 118.543 252.943 118.543 255.597C118.543 258.252 120.577 260.403 123.087 260.403Z" fill="#3B4C68"/>
<path opacity="0.1" d="M162.469 260.403C164.979 260.403 167.013 258.252 167.013 255.597C167.013 252.943 164.979 250.791 162.469 250.791C159.96 250.791 157.925 252.943 157.925 255.597C157.925 258.252 159.96 260.403 162.469 260.403Z" fill="#3B4C68"/>
<path opacity="0.1" d="M201.852 260.403C204.362 260.403 206.396 258.252 206.396 255.597C206.396 252.943 204.362 250.791 201.852 250.791C199.342 250.791 197.308 252.943 197.308 255.597C197.308 258.252 199.342 260.403 201.852 260.403Z" fill="#3B4C68"/>
<path opacity="0.1" d="M241.235 260.403C243.744 260.403 245.779 258.252 245.779 255.597C245.779 252.943 243.744 250.791 241.235 250.791C238.725 250.791 236.69 252.943 236.69 255.597C236.69 258.252 238.725 260.403 241.235 260.403Z" fill="#3B4C68"/>
<path opacity="0.1" d="M280.617 260.403C283.127 260.403 285.161 258.252 285.161 255.597C285.161 252.943 283.127 250.791 280.617 250.791C278.108 250.791 276.073 252.943 276.073 255.597C276.073 258.252 278.108 260.403 280.617 260.403Z" fill="#3B4C68"/>
<path opacity="0.1" d="M320 260.403C322.509 260.403 324.544 258.252 324.544 255.597C324.544 252.943 322.509 250.791 320 250.791C317.49 250.791 315.456 252.943 315.456 255.597C315.456 258.252 317.49 260.403 320 260.403Z" fill="#3B4C68"/>
<path opacity="0.1" d="M359.382 260.403C361.892 260.403 363.927 258.252 363.927 255.597C363.927 252.943 361.892 250.791 359.382 250.791C356.873 250.791 354.838 252.943 354.838 255.597C354.838 258.252 356.873 260.403 359.382 260.403Z" fill="#3B4C68"/>
<path opacity="0.1" d="M398.765 260.403C401.275 260.403 403.309 258.252 403.309 255.597C403.309 252.943 401.275 250.791 398.765 250.791C396.255 250.791 394.221 252.943 394.221 255.597C394.221 258.252 396.255 260.403 398.765 260.403Z" fill="#3B4C68"/>
<path opacity="0.1" d="M438.148 260.403C440.657 260.403 442.692 258.252 442.692 255.597C442.692 252.943 440.657 250.791 438.148 250.791C435.638 250.791 433.604 252.943 433.604 255.597C433.604 258.252 435.638 260.403 438.148 260.403Z" fill="#3B4C68"/>
<path opacity="0.1" d="M477.53 260.403C480.04 260.403 482.074 258.252 482.074 255.597C482.074 252.943 480.04 250.791 477.53 250.791C475.021 250.791 472.986 252.943 472.986 255.597C472.986 258.252 475.021 260.403 477.53 260.403Z" fill="#3B4C68"/>
<path opacity="0.1" d="M4.9389 302.059C7.44855 302.059 9.48303 299.907 9.48303 297.253C9.48303 294.598 7.44855 292.446 4.9389 292.446C2.42925 292.446 0.394775 294.598 0.394775 297.253C0.394775 299.907 2.42925 302.059 4.9389 302.059Z" fill="#3B4C68"/>
<path opacity="0.1" d="M44.3215 302.059C46.8312 302.059 48.8657 299.907 48.8657 297.253C48.8657 294.598 46.8312 292.446 44.3215 292.446C41.8119 292.446 39.7774 294.598 39.7774 297.253C39.7774 299.907 41.8119 302.059 44.3215 302.059Z" fill="#3B4C68"/>
<path opacity="0.1" d="M83.7041 302.059C86.2138 302.059 88.2483 299.907 88.2483 297.253C88.2483 294.598 86.2138 292.446 83.7041 292.446C81.1945 292.446 79.16 294.598 79.16 297.253C79.16 299.907 81.1945 302.059 83.7041 302.059Z" fill="#3B4C68"/>
<path opacity="0.1" d="M123.087 302.059C125.596 302.059 127.631 299.907 127.631 297.253C127.631 294.598 125.596 292.446 123.087 292.446C120.577 292.446 118.543 294.598 118.543 297.253C118.543 299.907 120.577 302.059 123.087 302.059Z" fill="#3B4C68"/>
<path opacity="0.1" d="M162.469 302.059C164.979 302.059 167.013 299.907 167.013 297.253C167.013 294.598 164.979 292.446 162.469 292.446C159.96 292.446 157.925 294.598 157.925 297.253C157.925 299.907 159.96 302.059 162.469 302.059Z" fill="#3B4C68"/>
<path opacity="0.1" d="M201.852 302.059C204.362 302.059 206.396 299.907 206.396 297.253C206.396 294.598 204.362 292.446 201.852 292.446C199.342 292.446 197.308 294.598 197.308 297.253C197.308 299.907 199.342 302.059 201.852 302.059Z" fill="#3B4C68"/>
<path opacity="0.1" d="M241.235 302.059C243.744 302.059 245.779 299.907 245.779 297.253C245.779 294.598 243.744 292.446 241.235 292.446C238.725 292.446 236.69 294.598 236.69 297.253C236.69 299.907 238.725 302.059 241.235 302.059Z" fill="#3B4C68"/>
<path opacity="0.1" d="M280.617 302.059C283.127 302.059 285.161 299.907 285.161 297.253C285.161 294.598 283.127 292.446 280.617 292.446C278.108 292.446 276.073 294.598 276.073 297.253C276.073 299.907 278.108 302.059 280.617 302.059Z" fill="#3B4C68"/>
<path opacity="0.1" d="M320 302.059C322.509 302.059 324.544 299.907 324.544 297.253C324.544 294.598 322.509 292.446 320 292.446C317.49 292.446 315.456 294.598 315.456 297.253C315.456 299.907 317.49 302.059 320 302.059Z" fill="#3B4C68"/>
<path opacity="0.1" d="M359.382 302.059C361.892 302.059 363.927 299.907 363.927 297.253C363.927 294.598 361.892 292.446 359.382 292.446C356.873 292.446 354.838 294.598 354.838 297.253C354.838 299.907 356.873 302.059 359.382 302.059Z" fill="#3B4C68"/>
<path opacity="0.1" d="M398.765 302.059C401.275 302.059 403.309 299.907 403.309 297.253C403.309 294.598 401.275 292.446 398.765 292.446C396.255 292.446 394.221 294.598 394.221 297.253C394.221 299.907 396.255 302.059 398.765 302.059Z" fill="#3B4C68"/>
<path opacity="0.1" d="M438.148 302.059C440.657 302.059 442.692 299.907 442.692 297.253C442.692 294.598 440.657 292.446 438.148 292.446C435.638 292.446 433.604 294.598 433.604 297.253C433.604 299.907 435.638 302.059 438.148 302.059Z" fill="#3B4C68"/>
<path opacity="0.1" d="M477.53 302.059C480.04 302.059 482.074 299.907 482.074 297.253C482.074 294.598 480.04 292.446 477.53 292.446C475.021 292.446 472.986 294.598 472.986 297.253C472.986 299.907 475.021 302.059 477.53 302.059Z" fill="#3B4C68"/>
</svg>
