<svg width="48" height="48" viewBox="0 0 48 48" fill="none" xmlns="http://www.w3.org/2000/svg">
<g clip-path="url(#clip0_11056_2)">
<path d="M12.1718 47.8301C10.3152 47.8094 8.47601 47.4689 6.73506 46.8235C5.46374 46.3536 4.31351 45.6055 3.36847 44.6339C2.39424 43.6907 1.64503 42.5402 1.17647 41.2678C0.531648 39.5269 0.191615 37.6879 0.171294 35.8315C0.0287059 32.7454 0 31.8198 0 24C0 16.1802 0.0315294 15.2579 0.169882 12.1694C0.192669 10.3138 0.533121 8.47575 1.17647 6.73506C1.64731 5.46353 2.39546 4.31284 3.36659 3.36659C4.31046 2.39324 5.46123 1.64472 6.73365 1.17647C8.4746 0.531114 10.3137 0.190602 12.1704 0.169882C15.2574 0.0287059 16.1845 0 24 0C31.8155 0 32.7421 0.0315294 35.8306 0.169882C37.6867 0.192508 39.5252 0.532963 41.2664 1.17647C42.5382 1.64533 43.6887 2.39359 44.6329 3.36612C45.6058 4.3107 46.3543 5.46146 46.8235 6.73365C47.469 8.47457 47.8097 10.3137 47.8306 12.1704C47.9718 15.2588 48.0005 16.1835 48.0005 24.0009C48.0005 31.8184 47.9718 32.7431 47.8306 35.8315C47.8082 37.6879 47.4676 39.5266 46.8235 41.2678C46.3364 42.5304 45.5902 43.6771 44.6331 44.634C43.676 45.5908 42.5291 46.3367 41.2664 46.8235C39.5254 47.469 37.6863 47.8097 35.8296 47.8306C32.744 47.9718 31.8165 48.0005 23.9991 48.0005C16.1816 48.0005 15.2569 47.9732 12.1713 47.8306" fill="url(#paint0_radial_11056_2)"/>
<path d="M12.1718 47.8301C10.3152 47.8094 8.47601 47.4689 6.73506 46.8235C5.46374 46.3536 4.31351 45.6055 3.36847 44.6339C2.39424 43.6907 1.64503 42.5402 1.17647 41.2678C0.531648 39.5269 0.191615 37.6879 0.171294 35.8315C0.0287059 32.7454 0 31.8198 0 24C0 16.1802 0.0315294 15.2579 0.169882 12.1694C0.192669 10.3138 0.533121 8.47575 1.17647 6.73506C1.64731 5.46353 2.39546 4.31284 3.36659 3.36659C4.31046 2.39324 5.46123 1.64472 6.73365 1.17647C8.4746 0.531114 10.3137 0.190602 12.1704 0.169882C15.2574 0.0287059 16.1845 0 24 0C31.8155 0 32.7421 0.0315294 35.8306 0.169882C37.6867 0.192508 39.5252 0.532963 41.2664 1.17647C42.5382 1.64533 43.6887 2.39359 44.6329 3.36612C45.6058 4.3107 46.3543 5.46146 46.8235 6.73365C47.469 8.47457 47.8097 10.3137 47.8306 12.1704C47.9718 15.2588 48.0005 16.1835 48.0005 24.0009C48.0005 31.8184 47.9718 32.7431 47.8306 35.8315C47.8082 37.6879 47.4676 39.5266 46.8235 41.2678C46.3364 42.5304 45.5902 43.6771 44.6331 44.634C43.676 45.5908 42.5291 46.3367 41.2664 46.8235C39.5254 47.469 37.6863 47.8097 35.8296 47.8306C32.744 47.9718 31.8165 48.0005 23.9991 48.0005C16.1816 48.0005 15.2569 47.9732 12.1713 47.8306" fill="url(#paint1_radial_11056_2)"/>
<path d="M18.1068 24.1022C18.1069 22.9265 18.4556 21.7773 19.1089 20.7999C19.7621 19.8225 20.6905 19.0607 21.7767 18.6109C22.8629 18.1611 24.0581 18.0435 25.2111 18.273C26.3641 18.5025 27.4232 19.0687 28.2544 19.9001C29.0856 20.7315 29.6516 21.7907 29.8808 22.9438C30.11 24.0969 29.9921 25.292 29.5421 26.3781C29.092 27.4642 28.33 28.3924 27.3524 29.0454C26.3748 29.6984 25.2255 30.0468 24.0499 30.0467C22.4735 30.0464 20.9618 29.42 19.8473 28.3052C18.7328 27.1904 18.1067 25.6785 18.1068 24.1022ZM14.8932 24.1022C14.8932 25.9132 15.4302 27.6836 16.4364 29.1894C17.4425 30.6952 18.8726 31.8688 20.5458 32.5619C22.2189 33.2549 24.06 33.4363 25.8363 33.0829C27.6125 32.7296 29.2441 31.8575 30.5247 30.5769C31.8053 29.2964 32.6773 27.6648 33.0307 25.8886C33.384 24.1123 33.2026 22.2712 32.5096 20.5981C31.8165 18.9249 30.6429 17.4948 29.1371 16.4886C27.6313 15.4825 25.8609 14.9455 24.0499 14.9455C22.8474 14.9454 21.6567 15.1822 20.5457 15.6424C19.4347 16.1025 18.4253 16.777 17.575 17.6273C16.7247 18.4776 16.0502 19.487 15.5901 20.598C15.1299 21.709 14.8931 22.8997 14.8932 24.1022ZM31.4292 14.5826C31.429 15.0058 31.5543 15.4196 31.7893 15.7716C32.0242 16.1236 32.3583 16.398 32.7492 16.5601C33.1401 16.7222 33.5704 16.7648 33.9855 16.6824C34.4006 16.6 34.7819 16.3964 35.0813 16.0973C35.3807 15.7982 35.5847 15.417 35.6674 15.002C35.7502 14.5869 35.708 14.1567 35.5462 13.7656C35.3844 13.3745 35.1103 13.0402 34.7585 12.805C34.4067 12.5697 33.9931 12.444 33.5699 12.4438C33.0026 12.4441 32.4587 12.6695 32.0575 13.0705C31.6562 13.4715 31.4306 14.0154 31.4301 14.5826M16.8466 38.6175C15.7158 38.605 14.5956 38.3981 13.5351 38.0057C12.7659 37.7092 12.0674 37.255 11.4844 36.6723C10.9014 36.0895 10.4469 35.3912 10.1501 34.6222C9.75755 33.5617 9.55061 32.4414 9.53837 31.3106C9.45178 29.4311 9.43484 28.8664 9.43484 24.1045C9.43484 19.3426 9.45366 18.7794 9.53837 16.8979C9.55208 15.7673 9.75898 14.6473 10.1501 13.5864C10.4466 12.817 10.9009 12.1183 11.484 11.5353C12.067 10.9523 12.7657 10.4979 13.5351 10.2015C14.5956 9.8089 15.7158 9.60196 16.8466 9.58971C18.7261 9.50312 19.2908 9.48618 24.0508 9.48618C28.8108 9.48618 29.376 9.50453 31.2574 9.59018C32.3881 9.6039 33.508 9.8108 34.569 10.2019C35.3383 10.4984 36.037 10.9528 36.62 11.5358C37.203 12.1188 37.6574 12.8175 37.9539 13.5869C38.3464 14.6474 38.5534 15.7676 38.5657 16.8984C38.6522 18.7808 38.6692 19.3426 38.6692 24.105C38.6692 28.8674 38.6518 29.4302 38.5657 31.3116C38.5525 32.4423 38.3456 33.5623 37.9539 34.6231C37.6571 35.3921 37.2026 36.0905 36.6196 36.6732C36.0366 37.256 35.3381 37.7102 34.569 38.0066C33.5084 38.3992 32.3882 38.6062 31.2574 38.6184C29.3779 38.705 28.8132 38.7219 24.0508 38.7219C19.2885 38.7219 18.7257 38.7045 16.8466 38.6184M16.6988 6.37888C15.2192 6.40798 13.7553 6.68802 12.3694 7.20711C11.1847 7.66517 10.1088 8.36573 9.21066 9.26388C8.31251 10.162 7.61194 11.2379 7.15389 12.4226C6.63487 13.8085 6.35483 15.2725 6.32566 16.7521C6.23766 18.6532 6.2179 19.2612 6.2179 24.1041C6.2179 28.9469 6.23813 29.5544 6.32566 31.4561C6.35482 32.9357 6.63486 34.3996 7.15389 35.7855C7.61197 36.9702 8.31254 38.0461 9.21069 38.9442C10.1088 39.8423 11.1847 40.5429 12.3694 41.001C13.7554 41.5198 15.2193 41.7999 16.6988 41.8292C18.601 41.9158 19.208 41.937 24.0508 41.937C28.8937 41.937 29.5012 41.9168 31.4028 41.8292C32.8824 41.8 34.3463 41.52 35.7322 41.001C36.9169 40.5429 37.9928 39.8423 38.891 38.9442C39.7891 38.0461 40.4897 36.9702 40.9478 35.7855C41.4675 34.3998 41.7476 32.9357 41.776 31.4561C41.8626 29.5535 41.8824 28.9469 41.8824 24.1041C41.8824 19.2612 41.8621 18.6537 41.776 16.7521C41.7469 15.2725 41.4669 13.8085 40.9478 12.4226C40.4897 11.2382 39.7893 10.1624 38.8914 9.2643C37.9936 8.36618 36.918 7.66548 35.7337 7.20711C34.3479 6.68769 32.8839 6.40763 31.4042 6.37888C29.5026 6.29183 28.8951 6.27112 24.0532 6.27112C19.2113 6.27112 18.6024 6.29136 16.6998 6.37888" fill="white"/>
</g>
<defs>
<radialGradient id="paint0_radial_11056_2" cx="0" cy="0" r="1" gradientUnits="userSpaceOnUse" gradientTransform="translate(3.10635 46.9487) scale(60.9421)">
<stop offset="0.09" stop-color="#FA8F21"/>
<stop offset="0.78" stop-color="#D82D7E"/>
</radialGradient>
<radialGradient id="paint1_radial_11056_2" cx="0" cy="0" r="1" gradientUnits="userSpaceOnUse" gradientTransform="translate(33.248 45.4071) scale(53.6296)">
<stop offset="0.64" stop-color="#8C3AAA" stop-opacity="0"/>
<stop offset="1" stop-color="#8C3AAA"/>
</radialGradient>
<clipPath id="clip0_11056_2">
<rect width="48" height="48" fill="white"/>
</clipPath>
</defs>
</svg>
