<svg width="48" height="48" viewBox="0 0 48 48" fill="none" xmlns="http://www.w3.org/2000/svg">
<g clip-path="url(#clip0_11056_6)">
<path d="M47.9962 35.8193C47.9962 36.0819 47.9882 36.6523 47.9722 37.0923C47.9516 38.1301 47.867 39.1656 47.7191 40.193C47.546 41.0938 47.2537 41.9675 46.8499 42.7911C45.9597 44.5456 44.5333 45.9706 42.7779 46.8589C41.9496 47.2637 41.0709 47.556 40.1652 47.7281C39.1454 47.8733 38.1178 47.9562 37.088 47.9765C36.6475 47.9921 36.0772 48.0001 35.8174 48.0001L12.1831 47.9963C11.9205 47.9963 11.3506 47.9883 10.9101 47.9723C9.87233 47.9516 8.83681 47.8671 7.80941 47.7191C6.90862 47.546 6.0349 47.2537 5.21129 46.8499C3.45522 45.9605 2.02872 44.534 1.13929 42.7779C0.735118 41.9495 0.443439 41.0709 0.272 40.1652C0.126836 39.1455 0.0438594 38.1179 0.0235294 37.0881C0.00952703 36.6647 0.00168307 36.2411 0 35.8175L0.00376471 12.1826C0.00376471 11.9201 0.0117647 11.3497 0.0277647 10.9097C0.0484411 9.87191 0.132993 8.83639 0.280941 7.80899C0.454001 6.9082 0.746298 6.03447 1.15012 5.21087C2.03973 3.45517 3.46621 2.02902 5.22212 1.13982C6.05041 0.734891 6.92908 0.442422 7.83482 0.270169C8.85455 0.124957 9.88218 0.0419796 10.912 0.0216984C11.3525 0.00616898 11.9228 -0.00183105 12.1826 -0.00183105L35.8193 0.00381602C36.0824 0.00381602 36.6522 0.011816 37.0922 0.027816C38.13 0.0484995 39.1655 0.133052 40.1929 0.280993C41.0937 0.454053 41.9675 0.746349 42.7911 1.15017C44.5456 2.04029 45.9705 3.46672 46.8588 5.22217C47.2638 6.05044 47.5563 6.92912 47.7285 7.83487C47.8736 8.85461 47.9566 9.88224 47.9769 10.9121C47.9925 11.3525 48.0005 11.9229 48.0005 12.1826L47.9967 35.817L47.9962 35.8193Z" fill="url(#paint0_linear_11056_6)"/>
<path d="M36.7153 11.3557C33.7636 8.4032 29.8395 6.62401 25.6736 6.34943C21.5077 6.07484 17.384 7.32359 14.0703 9.86315C10.7566 12.4027 8.47872 16.06 7.66085 20.154C6.84298 24.2481 7.54085 28.4998 9.6245 32.1176L7.18262 41.0343L16.3073 38.6414C18.8312 40.0155 21.659 40.7357 24.5327 40.736H24.5398C27.9437 40.7359 31.2711 39.7266 34.1014 37.8357C36.9317 35.9448 39.1379 33.2572 40.4411 30.1127C41.7442 26.9681 42.0858 23.5078 41.4226 20.1692C40.7595 16.8306 39.1213 13.7635 36.7153 11.3557ZM24.5412 37.8296H24.5356C21.9736 37.83 19.4587 37.1415 17.2541 35.8362L16.7318 35.5261L11.3172 36.9458L12.7624 31.6682L12.4221 31.127C10.7364 28.4405 9.99116 25.2699 10.3037 22.1136C10.6162 18.9574 11.9687 15.9945 14.1486 13.6907C16.3286 11.3869 19.2123 9.87286 22.3464 9.38654C25.4806 8.90023 28.6875 9.46924 31.4631 11.0041C34.2386 12.539 36.4254 14.9527 37.6797 17.8658C38.9339 20.779 39.1846 24.0263 38.3922 27.0974C37.5998 30.1685 35.8093 32.8892 33.3021 34.8318C30.795 36.7744 27.7133 37.8288 24.5417 37.8291L24.5412 37.8296ZM32.3859 27.1186C31.9558 26.9035 29.8414 25.863 29.4471 25.7195C29.0527 25.576 28.7661 25.5044 28.4796 25.9346C28.193 26.3647 27.3685 27.3336 27.1177 27.6202C26.8669 27.9068 26.616 27.943 26.1859 27.728C24.9179 27.2229 23.7476 26.5007 22.7276 25.5938C21.7873 24.7247 20.981 23.721 20.3351 22.6155C20.0843 22.1849 20.3083 21.9524 20.5233 21.7378C20.7167 21.5454 20.9534 21.2357 21.1685 20.9849C21.3454 20.7676 21.4903 20.5261 21.5986 20.2677C21.6557 20.1491 21.6824 20.0182 21.6761 19.8867C21.6699 19.7553 21.6309 19.6274 21.5629 19.5148C21.4556 19.2997 20.5953 17.1835 20.2367 16.3228C19.8876 15.4842 19.5309 15.5976 19.2692 15.5849C18.9945 15.5732 18.7196 15.5682 18.4447 15.5698C18.2268 15.5756 18.0124 15.6263 17.8151 15.7189C17.6177 15.8114 17.4416 15.9438 17.2979 16.1077C16.8115 16.5682 16.4265 17.125 16.1672 17.7425C15.9079 18.3601 15.7801 19.0249 15.792 19.6946C15.792 21.8122 17.3332 23.855 17.5483 24.1421C17.7633 24.4291 20.5807 28.7717 24.8951 30.6362C25.6958 30.9811 26.5142 31.2835 27.3469 31.5421C28.2242 31.8086 29.1517 31.867 30.0556 31.7124C30.8819 31.5891 32.6 30.6724 32.9586 29.6682C33.2399 29.0259 33.3271 28.3153 33.2094 27.624C33.1017 27.4447 32.8151 27.3369 32.385 27.1218L32.3859 27.1186Z" fill="white"/>
</g>
<defs>
<linearGradient id="paint0_linear_11056_6" x1="24.0002" y1="-0.00183105" x2="24.0002" y2="48" gradientUnits="userSpaceOnUse">
<stop stop-color="#61FD7D"/>
<stop offset="1" stop-color="#2BB826"/>
</linearGradient>
<clipPath id="clip0_11056_6">
<rect width="48" height="48" fill="white"/>
</clipPath>
</defs>
</svg>
