<svg width="48" height="48" viewBox="0 0 48 48" fill="none" xmlns="http://www.w3.org/2000/svg">
<g clip-path="url(#clip0_11055_2)">
<path d="M23 48H25C35.8 48 41.2 48 44.6 44.6C48 41.2 48 35.8 48 25V23C48 12.2 48 6.8 44.6 3.4C41.2 0 35.8 0 25 0H23C12.2 0 6.6 0 3.4 3.4C0 6.8 0 12.2 0 23V25C0 35.8 0 41.2 3.4 44.6C6.8 48 12.2 48 23 48Z" fill="#0077FF"/>
<path d="M25.6 34.6C14.6 34.6 8.40001 27 8.20001 14.6H13.6C13.8 23.8 17.8 27.6 21 28.4V14.6H26.2V22.4C29.4 22 32.6 18.4 33.8 14.6H39C38.2 18.8 35.6 22.4 32 24.6C36 26.6 39 30.2 40.2 34.6H34.6C33.6 30.8 30.2 28 26.4 27.4V34.6C26.2 34.6 25.6 34.6 25.6 34.6Z" fill="white"/>
</g>
<defs>
<clipPath id="clip0_11055_2">
<rect width="48" height="48" fill="white"/>
</clipPath>
</defs>
</svg>
