<svg width="102" height="59" viewBox="0 0 102 59" fill="none" xmlns="http://www.w3.org/2000/svg">
<path d="M94.5 9.76741V19.8604C93.3081 19.6361 92.0928 19.5269 90.875 19.5348H90.5125C89.6768 15.8578 87.4523 12.5531 84.2155 10.1799C80.9787 7.80671 76.9284 6.51084 72.75 6.5116H65.5C62.6862 6.5116 59.911 7.10001 57.3943 8.23023C54.8775 9.36044 52.6883 11.0014 51 13.0232C49.3117 11.0014 47.1225 9.36044 44.6057 8.23023C42.089 7.10001 39.3138 6.5116 36.5 6.5116H29.25C25.0716 6.51084 21.0213 7.80671 17.7845 10.1799C14.5477 12.5531 12.3232 15.8578 11.4875 19.5348H11.125C9.9072 19.5269 8.69195 19.6361 7.5 19.8604V9.76741C7.5 7.17693 8.64576 4.69255 10.6852 2.86081C12.7247 1.02906 15.4908 0 18.375 0H83.625C86.5092 0 89.2753 1.02906 91.3148 2.86081C93.3542 4.69255 94.5 7.17693 94.5 9.76741Z" fill="#F7515C"/>
<path d="M91.0714 22.9731H10.9286C4.89289 22.9731 0 27.8121 0 33.7812V48.1919C0 54.161 4.89289 59 10.9286 59H91.0714C97.1071 59 102 54.161 102 48.1919V33.7812C102 27.8121 97.1071 22.9731 91.0714 22.9731Z" fill="#F7515C"/>
<path d="M82.9723 19.5348H55.2773C56.0252 17.6349 57.4091 15.9892 59.2392 14.8235C61.0694 13.6577 63.2562 13.0289 65.4998 13.0232H72.7498C74.9935 13.0289 77.1803 13.6577 79.0105 14.8235C80.8406 15.9892 82.2245 17.6349 82.9723 19.5348ZM46.7223 19.5348H19.0273C19.7752 17.6349 21.1591 15.9892 22.9892 14.8235C24.8194 13.6577 27.0062 13.0289 29.2498 13.0232H36.4998C38.7435 13.0289 40.9303 13.6577 42.7605 14.8235C44.5906 15.9892 45.9745 17.6349 46.7223 19.5348Z" fill="#282A30"/>
</svg>
