<svg width="318" height="202" viewBox="0 0 318 202" fill="none" xmlns="http://www.w3.org/2000/svg">
<path opacity="0.1" d="M3 6.44681C4.65685 6.44681 6 5.00364 6 3.2234C6 1.44317 4.65685 0 3 0C1.34315 0 0 1.44317 0 3.2234C0 5.00364 1.34315 6.44681 3 6.44681Z" fill="#3B4C68"/>
<path opacity="0.1" d="M29 6.44681C30.6569 6.44681 32 5.00364 32 3.2234C32 1.44317 30.6569 0 29 0C27.3431 0 26 1.44317 26 3.2234C26 5.00364 27.3431 6.44681 29 6.44681Z" fill="#3B4C68"/>
<path opacity="0.1" d="M55 6.44681C56.6569 6.44681 58 5.00364 58 3.2234C58 1.44317 56.6569 0 55 0C53.3431 0 52 1.44317 52 3.2234C52 5.00364 53.3431 6.44681 55 6.44681Z" fill="#3B4C68"/>
<path opacity="0.1" d="M81 6.44681C82.6569 6.44681 84 5.00364 84 3.2234C84 1.44317 82.6569 0 81 0C79.3431 0 78 1.44317 78 3.2234C78 5.00364 79.3431 6.44681 81 6.44681Z" fill="#3B4C68"/>
<path opacity="0.1" d="M107 6.44681C108.657 6.44681 110 5.00364 110 3.2234C110 1.44317 108.657 0 107 0C105.343 0 104 1.44317 104 3.2234C104 5.00364 105.343 6.44681 107 6.44681Z" fill="#3B4C68"/>
<path opacity="0.1" d="M133 6.44681C134.657 6.44681 136 5.00364 136 3.2234C136 1.44317 134.657 0 133 0C131.343 0 130 1.44317 130 3.2234C130 5.00364 131.343 6.44681 133 6.44681Z" fill="#3B4C68"/>
<path opacity="0.1" d="M159 6.44681C160.657 6.44681 162 5.00364 162 3.2234C162 1.44317 160.657 0 159 0C157.343 0 156 1.44317 156 3.2234C156 5.00364 157.343 6.44681 159 6.44681Z" fill="#3B4C68"/>
<path opacity="0.1" d="M185 6.44681C186.657 6.44681 188 5.00364 188 3.2234C188 1.44317 186.657 0 185 0C183.343 0 182 1.44317 182 3.2234C182 5.00364 183.343 6.44681 185 6.44681Z" fill="#3B4C68"/>
<path opacity="0.1" d="M211 6.44681C212.657 6.44681 214 5.00364 214 3.2234C214 1.44317 212.657 0 211 0C209.343 0 208 1.44317 208 3.2234C208 5.00364 209.343 6.44681 211 6.44681Z" fill="#3B4C68"/>
<path opacity="0.1" d="M237 6.44681C238.657 6.44681 240 5.00364 240 3.2234C240 1.44317 238.657 0 237 0C235.343 0 234 1.44317 234 3.2234C234 5.00364 235.343 6.44681 237 6.44681Z" fill="#3B4C68"/>
<path opacity="0.1" d="M263 6.44681C264.657 6.44681 266 5.00364 266 3.2234C266 1.44317 264.657 0 263 0C261.343 0 260 1.44317 260 3.2234C260 5.00364 261.343 6.44681 263 6.44681Z" fill="#3B4C68"/>
<path opacity="0.1" d="M289 6.44681C290.657 6.44681 292 5.00364 292 3.2234C292 1.44317 290.657 0 289 0C287.343 0 286 1.44317 286 3.2234C286 5.00364 287.343 6.44681 289 6.44681Z" fill="#3B4C68"/>
<path opacity="0.1" d="M315 6.44681C316.657 6.44681 318 5.00364 318 3.2234C318 1.44317 316.657 0 315 0C313.343 0 312 1.44317 312 3.2234C312 5.00364 313.343 6.44681 315 6.44681Z" fill="#3B4C68"/>
<path opacity="0.1" d="M3 34.383C4.65685 34.383 6 32.9398 6 31.1596C6 29.3793 4.65685 27.9362 3 27.9362C1.34315 27.9362 0 29.3793 0 31.1596C0 32.9398 1.34315 34.383 3 34.383Z" fill="#3B4C68"/>
<path opacity="0.1" d="M29 34.383C30.6569 34.383 32 32.9398 32 31.1596C32 29.3793 30.6569 27.9362 29 27.9362C27.3431 27.9362 26 29.3793 26 31.1596C26 32.9398 27.3431 34.383 29 34.383Z" fill="#3B4C68"/>
<path opacity="0.1" d="M55 34.383C56.6569 34.383 58 32.9398 58 31.1596C58 29.3793 56.6569 27.9362 55 27.9362C53.3431 27.9362 52 29.3793 52 31.1596C52 32.9398 53.3431 34.383 55 34.383Z" fill="#3B4C68"/>
<path opacity="0.1" d="M81 34.383C82.6569 34.383 84 32.9398 84 31.1596C84 29.3793 82.6569 27.9362 81 27.9362C79.3431 27.9362 78 29.3793 78 31.1596C78 32.9398 79.3431 34.383 81 34.383Z" fill="#3B4C68"/>
<path opacity="0.1" d="M107 34.383C108.657 34.383 110 32.9398 110 31.1596C110 29.3793 108.657 27.9362 107 27.9362C105.343 27.9362 104 29.3793 104 31.1596C104 32.9398 105.343 34.383 107 34.383Z" fill="#3B4C68"/>
<path opacity="0.1" d="M133 34.383C134.657 34.383 136 32.9398 136 31.1596C136 29.3793 134.657 27.9362 133 27.9362C131.343 27.9362 130 29.3793 130 31.1596C130 32.9398 131.343 34.383 133 34.383Z" fill="#3B4C68"/>
<path opacity="0.1" d="M159 34.383C160.657 34.383 162 32.9398 162 31.1596C162 29.3793 160.657 27.9362 159 27.9362C157.343 27.9362 156 29.3793 156 31.1596C156 32.9398 157.343 34.383 159 34.383Z" fill="#3B4C68"/>
<path opacity="0.1" d="M185 34.383C186.657 34.383 188 32.9398 188 31.1596C188 29.3793 186.657 27.9362 185 27.9362C183.343 27.9362 182 29.3793 182 31.1596C182 32.9398 183.343 34.383 185 34.383Z" fill="#3B4C68"/>
<path opacity="0.1" d="M211 34.383C212.657 34.383 214 32.9398 214 31.1596C214 29.3793 212.657 27.9362 211 27.9362C209.343 27.9362 208 29.3793 208 31.1596C208 32.9398 209.343 34.383 211 34.383Z" fill="#3B4C68"/>
<path opacity="0.1" d="M237 34.383C238.657 34.383 240 32.9398 240 31.1596C240 29.3793 238.657 27.9362 237 27.9362C235.343 27.9362 234 29.3793 234 31.1596C234 32.9398 235.343 34.383 237 34.383Z" fill="#3B4C68"/>
<path opacity="0.1" d="M263 34.383C264.657 34.383 266 32.9398 266 31.1596C266 29.3793 264.657 27.9362 263 27.9362C261.343 27.9362 260 29.3793 260 31.1596C260 32.9398 261.343 34.383 263 34.383Z" fill="#3B4C68"/>
<path opacity="0.1" d="M289 34.383C290.657 34.383 292 32.9398 292 31.1596C292 29.3793 290.657 27.9362 289 27.9362C287.343 27.9362 286 29.3793 286 31.1596C286 32.9398 287.343 34.383 289 34.383Z" fill="#3B4C68"/>
<path opacity="0.1" d="M315 34.383C316.657 34.383 318 32.9398 318 31.1596C318 29.3793 316.657 27.9362 315 27.9362C313.343 27.9362 312 29.3793 312 31.1596C312 32.9398 313.343 34.383 315 34.383Z" fill="#3B4C68"/>
<path opacity="0.1" d="M3 62.3192C4.65685 62.3192 6 60.876 6 59.0958C6 57.3155 4.65685 55.8723 3 55.8723C1.34315 55.8723 0 57.3155 0 59.0958C0 60.876 1.34315 62.3192 3 62.3192Z" fill="#3B4C68"/>
<path opacity="0.1" d="M29 62.3192C30.6569 62.3192 32 60.876 32 59.0958C32 57.3155 30.6569 55.8723 29 55.8723C27.3431 55.8723 26 57.3155 26 59.0958C26 60.876 27.3431 62.3192 29 62.3192Z" fill="#3B4C68"/>
<path opacity="0.1" d="M55 62.3192C56.6569 62.3192 58 60.876 58 59.0958C58 57.3155 56.6569 55.8723 55 55.8723C53.3431 55.8723 52 57.3155 52 59.0958C52 60.876 53.3431 62.3192 55 62.3192Z" fill="#3B4C68"/>
<path opacity="0.1" d="M81 62.3192C82.6569 62.3192 84 60.876 84 59.0958C84 57.3155 82.6569 55.8723 81 55.8723C79.3431 55.8723 78 57.3155 78 59.0958C78 60.876 79.3431 62.3192 81 62.3192Z" fill="#3B4C68"/>
<path opacity="0.1" d="M107 62.3192C108.657 62.3192 110 60.876 110 59.0958C110 57.3155 108.657 55.8723 107 55.8723C105.343 55.8723 104 57.3155 104 59.0958C104 60.876 105.343 62.3192 107 62.3192Z" fill="#3B4C68"/>
<path opacity="0.1" d="M133 62.3192C134.657 62.3192 136 60.876 136 59.0958C136 57.3155 134.657 55.8723 133 55.8723C131.343 55.8723 130 57.3155 130 59.0958C130 60.876 131.343 62.3192 133 62.3192Z" fill="#3B4C68"/>
<path opacity="0.1" d="M159 62.3192C160.657 62.3192 162 60.876 162 59.0958C162 57.3155 160.657 55.8723 159 55.8723C157.343 55.8723 156 57.3155 156 59.0958C156 60.876 157.343 62.3192 159 62.3192Z" fill="#3B4C68"/>
<path opacity="0.1" d="M185 62.3192C186.657 62.3192 188 60.876 188 59.0958C188 57.3155 186.657 55.8723 185 55.8723C183.343 55.8723 182 57.3155 182 59.0958C182 60.876 183.343 62.3192 185 62.3192Z" fill="#3B4C68"/>
<path opacity="0.1" d="M211 62.3192C212.657 62.3192 214 60.876 214 59.0958C214 57.3155 212.657 55.8723 211 55.8723C209.343 55.8723 208 57.3155 208 59.0958C208 60.876 209.343 62.3192 211 62.3192Z" fill="#3B4C68"/>
<path opacity="0.1" d="M237 62.3192C238.657 62.3192 240 60.876 240 59.0958C240 57.3155 238.657 55.8723 237 55.8723C235.343 55.8723 234 57.3155 234 59.0958C234 60.876 235.343 62.3192 237 62.3192Z" fill="#3B4C68"/>
<path opacity="0.1" d="M263 62.3192C264.657 62.3192 266 60.876 266 59.0958C266 57.3155 264.657 55.8723 263 55.8723C261.343 55.8723 260 57.3155 260 59.0958C260 60.876 261.343 62.3192 263 62.3192Z" fill="#3B4C68"/>
<path opacity="0.1" d="M289 62.3192C290.657 62.3192 292 60.876 292 59.0958C292 57.3155 290.657 55.8723 289 55.8723C287.343 55.8723 286 57.3155 286 59.0958C286 60.876 287.343 62.3192 289 62.3192Z" fill="#3B4C68"/>
<path opacity="0.1" d="M315 62.3192C316.657 62.3192 318 60.876 318 59.0958C318 57.3155 316.657 55.8723 315 55.8723C313.343 55.8723 312 57.3155 312 59.0958C312 60.876 313.343 62.3192 315 62.3192Z" fill="#3B4C68"/>
<path opacity="0.1" d="M3 90.2553C4.65685 90.2553 6 88.8121 6 87.0319C6 85.2517 4.65685 83.8085 3 83.8085C1.34315 83.8085 0 85.2517 0 87.0319C0 88.8121 1.34315 90.2553 3 90.2553Z" fill="#3B4C68"/>
<path opacity="0.1" d="M29 90.2553C30.6569 90.2553 32 88.8121 32 87.0319C32 85.2517 30.6569 83.8085 29 83.8085C27.3431 83.8085 26 85.2517 26 87.0319C26 88.8121 27.3431 90.2553 29 90.2553Z" fill="#3B4C68"/>
<path opacity="0.1" d="M55 90.2553C56.6569 90.2553 58 88.8121 58 87.0319C58 85.2517 56.6569 83.8085 55 83.8085C53.3431 83.8085 52 85.2517 52 87.0319C52 88.8121 53.3431 90.2553 55 90.2553Z" fill="#3B4C68"/>
<path opacity="0.1" d="M81 90.2553C82.6569 90.2553 84 88.8121 84 87.0319C84 85.2517 82.6569 83.8085 81 83.8085C79.3431 83.8085 78 85.2517 78 87.0319C78 88.8121 79.3431 90.2553 81 90.2553Z" fill="#3B4C68"/>
<path opacity="0.1" d="M107 90.2553C108.657 90.2553 110 88.8121 110 87.0319C110 85.2517 108.657 83.8085 107 83.8085C105.343 83.8085 104 85.2517 104 87.0319C104 88.8121 105.343 90.2553 107 90.2553Z" fill="#3B4C68"/>
<path opacity="0.1" d="M133 90.2553C134.657 90.2553 136 88.8121 136 87.0319C136 85.2517 134.657 83.8085 133 83.8085C131.343 83.8085 130 85.2517 130 87.0319C130 88.8121 131.343 90.2553 133 90.2553Z" fill="#3B4C68"/>
<path opacity="0.1" d="M159 90.2553C160.657 90.2553 162 88.8121 162 87.0319C162 85.2517 160.657 83.8085 159 83.8085C157.343 83.8085 156 85.2517 156 87.0319C156 88.8121 157.343 90.2553 159 90.2553Z" fill="#3B4C68"/>
<path opacity="0.1" d="M185 90.2553C186.657 90.2553 188 88.8121 188 87.0319C188 85.2517 186.657 83.8085 185 83.8085C183.343 83.8085 182 85.2517 182 87.0319C182 88.8121 183.343 90.2553 185 90.2553Z" fill="#3B4C68"/>
<path opacity="0.1" d="M211 90.2553C212.657 90.2553 214 88.8121 214 87.0319C214 85.2517 212.657 83.8085 211 83.8085C209.343 83.8085 208 85.2517 208 87.0319C208 88.8121 209.343 90.2553 211 90.2553Z" fill="#3B4C68"/>
<path opacity="0.1" d="M237 90.2553C238.657 90.2553 240 88.8121 240 87.0319C240 85.2517 238.657 83.8085 237 83.8085C235.343 83.8085 234 85.2517 234 87.0319C234 88.8121 235.343 90.2553 237 90.2553Z" fill="#3B4C68"/>
<path opacity="0.1" d="M263 90.2553C264.657 90.2553 266 88.8121 266 87.0319C266 85.2517 264.657 83.8085 263 83.8085C261.343 83.8085 260 85.2517 260 87.0319C260 88.8121 261.343 90.2553 263 90.2553Z" fill="#3B4C68"/>
<path opacity="0.1" d="M289 90.2553C290.657 90.2553 292 88.8121 292 87.0319C292 85.2517 290.657 83.8085 289 83.8085C287.343 83.8085 286 85.2517 286 87.0319C286 88.8121 287.343 90.2553 289 90.2553Z" fill="#3B4C68"/>
<path opacity="0.1" d="M315 90.2553C316.657 90.2553 318 88.8121 318 87.0319C318 85.2517 316.657 83.8085 315 83.8085C313.343 83.8085 312 85.2517 312 87.0319C312 88.8121 313.343 90.2553 315 90.2553Z" fill="#3B4C68"/>
<path opacity="0.1" d="M3 118.191C4.65685 118.191 6 116.748 6 114.968C6 113.188 4.65685 111.745 3 111.745C1.34315 111.745 0 113.188 0 114.968C0 116.748 1.34315 118.191 3 118.191Z" fill="#3B4C68"/>
<path opacity="0.1" d="M29 118.191C30.6569 118.191 32 116.748 32 114.968C32 113.188 30.6569 111.745 29 111.745C27.3431 111.745 26 113.188 26 114.968C26 116.748 27.3431 118.191 29 118.191Z" fill="#3B4C68"/>
<path opacity="0.1" d="M55 118.191C56.6569 118.191 58 116.748 58 114.968C58 113.188 56.6569 111.745 55 111.745C53.3431 111.745 52 113.188 52 114.968C52 116.748 53.3431 118.191 55 118.191Z" fill="#3B4C68"/>
<path opacity="0.1" d="M81 118.191C82.6569 118.191 84 116.748 84 114.968C84 113.188 82.6569 111.745 81 111.745C79.3431 111.745 78 113.188 78 114.968C78 116.748 79.3431 118.191 81 118.191Z" fill="#3B4C68"/>
<path opacity="0.1" d="M107 118.191C108.657 118.191 110 116.748 110 114.968C110 113.188 108.657 111.745 107 111.745C105.343 111.745 104 113.188 104 114.968C104 116.748 105.343 118.191 107 118.191Z" fill="#3B4C68"/>
<path opacity="0.1" d="M133 118.191C134.657 118.191 136 116.748 136 114.968C136 113.188 134.657 111.745 133 111.745C131.343 111.745 130 113.188 130 114.968C130 116.748 131.343 118.191 133 118.191Z" fill="#3B4C68"/>
<path opacity="0.1" d="M159 118.191C160.657 118.191 162 116.748 162 114.968C162 113.188 160.657 111.745 159 111.745C157.343 111.745 156 113.188 156 114.968C156 116.748 157.343 118.191 159 118.191Z" fill="#3B4C68"/>
<path opacity="0.1" d="M185 118.191C186.657 118.191 188 116.748 188 114.968C188 113.188 186.657 111.745 185 111.745C183.343 111.745 182 113.188 182 114.968C182 116.748 183.343 118.191 185 118.191Z" fill="#3B4C68"/>
<path opacity="0.1" d="M211 118.191C212.657 118.191 214 116.748 214 114.968C214 113.188 212.657 111.745 211 111.745C209.343 111.745 208 113.188 208 114.968C208 116.748 209.343 118.191 211 118.191Z" fill="#3B4C68"/>
<path opacity="0.1" d="M237 118.191C238.657 118.191 240 116.748 240 114.968C240 113.188 238.657 111.745 237 111.745C235.343 111.745 234 113.188 234 114.968C234 116.748 235.343 118.191 237 118.191Z" fill="#3B4C68"/>
<path opacity="0.1" d="M263 118.191C264.657 118.191 266 116.748 266 114.968C266 113.188 264.657 111.745 263 111.745C261.343 111.745 260 113.188 260 114.968C260 116.748 261.343 118.191 263 118.191Z" fill="#3B4C68"/>
<path opacity="0.1" d="M289 118.191C290.657 118.191 292 116.748 292 114.968C292 113.188 290.657 111.745 289 111.745C287.343 111.745 286 113.188 286 114.968C286 116.748 287.343 118.191 289 118.191Z" fill="#3B4C68"/>
<path opacity="0.1" d="M315 118.191C316.657 118.191 318 116.748 318 114.968C318 113.188 316.657 111.745 315 111.745C313.343 111.745 312 113.188 312 114.968C312 116.748 313.343 118.191 315 118.191Z" fill="#3B4C68"/>
<path opacity="0.1" d="M3 146.128C4.65685 146.128 6 144.684 6 142.904C6 141.124 4.65685 139.681 3 139.681C1.34315 139.681 0 141.124 0 142.904C0 144.684 1.34315 146.128 3 146.128Z" fill="#3B4C68"/>
<path opacity="0.1" d="M29 146.128C30.6569 146.128 32 144.684 32 142.904C32 141.124 30.6569 139.681 29 139.681C27.3431 139.681 26 141.124 26 142.904C26 144.684 27.3431 146.128 29 146.128Z" fill="#3B4C68"/>
<path opacity="0.1" d="M55 146.128C56.6569 146.128 58 144.684 58 142.904C58 141.124 56.6569 139.681 55 139.681C53.3431 139.681 52 141.124 52 142.904C52 144.684 53.3431 146.128 55 146.128Z" fill="#3B4C68"/>
<path opacity="0.1" d="M81 146.128C82.6569 146.128 84 144.684 84 142.904C84 141.124 82.6569 139.681 81 139.681C79.3431 139.681 78 141.124 78 142.904C78 144.684 79.3431 146.128 81 146.128Z" fill="#3B4C68"/>
<path opacity="0.1" d="M107 146.128C108.657 146.128 110 144.684 110 142.904C110 141.124 108.657 139.681 107 139.681C105.343 139.681 104 141.124 104 142.904C104 144.684 105.343 146.128 107 146.128Z" fill="#3B4C68"/>
<path opacity="0.1" d="M133 146.128C134.657 146.128 136 144.684 136 142.904C136 141.124 134.657 139.681 133 139.681C131.343 139.681 130 141.124 130 142.904C130 144.684 131.343 146.128 133 146.128Z" fill="#3B4C68"/>
<path opacity="0.1" d="M159 146.128C160.657 146.128 162 144.684 162 142.904C162 141.124 160.657 139.681 159 139.681C157.343 139.681 156 141.124 156 142.904C156 144.684 157.343 146.128 159 146.128Z" fill="#3B4C68"/>
<path opacity="0.1" d="M185 146.128C186.657 146.128 188 144.684 188 142.904C188 141.124 186.657 139.681 185 139.681C183.343 139.681 182 141.124 182 142.904C182 144.684 183.343 146.128 185 146.128Z" fill="#3B4C68"/>
<path opacity="0.1" d="M211 146.128C212.657 146.128 214 144.684 214 142.904C214 141.124 212.657 139.681 211 139.681C209.343 139.681 208 141.124 208 142.904C208 144.684 209.343 146.128 211 146.128Z" fill="#3B4C68"/>
<path opacity="0.1" d="M237 146.128C238.657 146.128 240 144.684 240 142.904C240 141.124 238.657 139.681 237 139.681C235.343 139.681 234 141.124 234 142.904C234 144.684 235.343 146.128 237 146.128Z" fill="#3B4C68"/>
<path opacity="0.1" d="M263 146.128C264.657 146.128 266 144.684 266 142.904C266 141.124 264.657 139.681 263 139.681C261.343 139.681 260 141.124 260 142.904C260 144.684 261.343 146.128 263 146.128Z" fill="#3B4C68"/>
<path opacity="0.1" d="M289 146.128C290.657 146.128 292 144.684 292 142.904C292 141.124 290.657 139.681 289 139.681C287.343 139.681 286 141.124 286 142.904C286 144.684 287.343 146.128 289 146.128Z" fill="#3B4C68"/>
<path opacity="0.1" d="M315 146.128C316.657 146.128 318 144.684 318 142.904C318 141.124 316.657 139.681 315 139.681C313.343 139.681 312 141.124 312 142.904C312 144.684 313.343 146.128 315 146.128Z" fill="#3B4C68"/>
<path opacity="0.1" d="M3 174.064C4.65685 174.064 6 172.621 6 170.84C6 169.06 4.65685 167.617 3 167.617C1.34315 167.617 0 169.06 0 170.84C0 172.621 1.34315 174.064 3 174.064Z" fill="#3B4C68"/>
<path opacity="0.1" d="M29 174.064C30.6569 174.064 32 172.621 32 170.84C32 169.06 30.6569 167.617 29 167.617C27.3431 167.617 26 169.06 26 170.84C26 172.621 27.3431 174.064 29 174.064Z" fill="#3B4C68"/>
<path opacity="0.1" d="M55 174.064C56.6569 174.064 58 172.621 58 170.84C58 169.06 56.6569 167.617 55 167.617C53.3431 167.617 52 169.06 52 170.84C52 172.621 53.3431 174.064 55 174.064Z" fill="#3B4C68"/>
<path opacity="0.1" d="M81 174.064C82.6569 174.064 84 172.621 84 170.84C84 169.06 82.6569 167.617 81 167.617C79.3431 167.617 78 169.06 78 170.84C78 172.621 79.3431 174.064 81 174.064Z" fill="#3B4C68"/>
<path opacity="0.1" d="M107 174.064C108.657 174.064 110 172.621 110 170.84C110 169.06 108.657 167.617 107 167.617C105.343 167.617 104 169.06 104 170.84C104 172.621 105.343 174.064 107 174.064Z" fill="#3B4C68"/>
<path opacity="0.1" d="M133 174.064C134.657 174.064 136 172.621 136 170.84C136 169.06 134.657 167.617 133 167.617C131.343 167.617 130 169.06 130 170.84C130 172.621 131.343 174.064 133 174.064Z" fill="#3B4C68"/>
<path opacity="0.1" d="M159 174.064C160.657 174.064 162 172.621 162 170.84C162 169.06 160.657 167.617 159 167.617C157.343 167.617 156 169.06 156 170.84C156 172.621 157.343 174.064 159 174.064Z" fill="#3B4C68"/>
<path opacity="0.1" d="M185 174.064C186.657 174.064 188 172.621 188 170.84C188 169.06 186.657 167.617 185 167.617C183.343 167.617 182 169.06 182 170.84C182 172.621 183.343 174.064 185 174.064Z" fill="#3B4C68"/>
<path opacity="0.1" d="M211 174.064C212.657 174.064 214 172.621 214 170.84C214 169.06 212.657 167.617 211 167.617C209.343 167.617 208 169.06 208 170.84C208 172.621 209.343 174.064 211 174.064Z" fill="#3B4C68"/>
<path opacity="0.1" d="M237 174.064C238.657 174.064 240 172.621 240 170.84C240 169.06 238.657 167.617 237 167.617C235.343 167.617 234 169.06 234 170.84C234 172.621 235.343 174.064 237 174.064Z" fill="#3B4C68"/>
<path opacity="0.1" d="M263 174.064C264.657 174.064 266 172.621 266 170.84C266 169.06 264.657 167.617 263 167.617C261.343 167.617 260 169.06 260 170.84C260 172.621 261.343 174.064 263 174.064Z" fill="#3B4C68"/>
<path opacity="0.1" d="M289 174.064C290.657 174.064 292 172.621 292 170.84C292 169.06 290.657 167.617 289 167.617C287.343 167.617 286 169.06 286 170.84C286 172.621 287.343 174.064 289 174.064Z" fill="#3B4C68"/>
<path opacity="0.1" d="M315 174.064C316.657 174.064 318 172.621 318 170.84C318 169.06 316.657 167.617 315 167.617C313.343 167.617 312 169.06 312 170.84C312 172.621 313.343 174.064 315 174.064Z" fill="#3B4C68"/>
<path opacity="0.1" d="M3 202C4.65685 202 6 200.557 6 198.777C6 196.996 4.65685 195.553 3 195.553C1.34315 195.553 0 196.996 0 198.777C0 200.557 1.34315 202 3 202Z" fill="#3B4C68"/>
<path opacity="0.1" d="M29 202C30.6569 202 32 200.557 32 198.777C32 196.996 30.6569 195.553 29 195.553C27.3431 195.553 26 196.996 26 198.777C26 200.557 27.3431 202 29 202Z" fill="#3B4C68"/>
<path opacity="0.1" d="M55 202C56.6569 202 58 200.557 58 198.777C58 196.996 56.6569 195.553 55 195.553C53.3431 195.553 52 196.996 52 198.777C52 200.557 53.3431 202 55 202Z" fill="#3B4C68"/>
<path opacity="0.1" d="M81 202C82.6569 202 84 200.557 84 198.777C84 196.996 82.6569 195.553 81 195.553C79.3431 195.553 78 196.996 78 198.777C78 200.557 79.3431 202 81 202Z" fill="#3B4C68"/>
<path opacity="0.1" d="M107 202C108.657 202 110 200.557 110 198.777C110 196.996 108.657 195.553 107 195.553C105.343 195.553 104 196.996 104 198.777C104 200.557 105.343 202 107 202Z" fill="#3B4C68"/>
<path opacity="0.1" d="M133 202C134.657 202 136 200.557 136 198.777C136 196.996 134.657 195.553 133 195.553C131.343 195.553 130 196.996 130 198.777C130 200.557 131.343 202 133 202Z" fill="#3B4C68"/>
<path opacity="0.1" d="M159 202C160.657 202 162 200.557 162 198.777C162 196.996 160.657 195.553 159 195.553C157.343 195.553 156 196.996 156 198.777C156 200.557 157.343 202 159 202Z" fill="#3B4C68"/>
<path opacity="0.1" d="M185 202C186.657 202 188 200.557 188 198.777C188 196.996 186.657 195.553 185 195.553C183.343 195.553 182 196.996 182 198.777C182 200.557 183.343 202 185 202Z" fill="#3B4C68"/>
<path opacity="0.1" d="M211 202C212.657 202 214 200.557 214 198.777C214 196.996 212.657 195.553 211 195.553C209.343 195.553 208 196.996 208 198.777C208 200.557 209.343 202 211 202Z" fill="#3B4C68"/>
<path opacity="0.1" d="M237 202C238.657 202 240 200.557 240 198.777C240 196.996 238.657 195.553 237 195.553C235.343 195.553 234 196.996 234 198.777C234 200.557 235.343 202 237 202Z" fill="#3B4C68"/>
<path opacity="0.1" d="M263 202C264.657 202 266 200.557 266 198.777C266 196.996 264.657 195.553 263 195.553C261.343 195.553 260 196.996 260 198.777C260 200.557 261.343 202 263 202Z" fill="#3B4C68"/>
<path opacity="0.1" d="M289 202C290.657 202 292 200.557 292 198.777C292 196.996 290.657 195.553 289 195.553C287.343 195.553 286 196.996 286 198.777C286 200.557 287.343 202 289 202Z" fill="#3B4C68"/>
<path opacity="0.1" d="M315 202C316.657 202 318 200.557 318 198.777C318 196.996 316.657 195.553 315 195.553C313.343 195.553 312 196.996 312 198.777C312 200.557 313.343 202 315 202Z" fill="#3B4C68"/>
</svg>
