<svg width="105" height="105" viewBox="0 0 105 105" fill="none" xmlns="http://www.w3.org/2000/svg">
<g clip-path="url(#clip0_11089_14)">
<path d="M97.2795 32.0547V42.4445C96.0525 42.2136 94.8015 42.1012 93.5479 42.1094H93.1747C92.3145 38.3242 90.0246 34.9223 86.6926 32.4793C83.3605 30.0363 79.1911 28.7023 74.8898 28.7031H67.4266C64.53 28.7031 61.6732 29.3088 59.0824 30.4723C56.4917 31.6357 54.2381 33.325 52.5001 35.4062C50.7622 33.325 48.5086 31.6357 45.9178 30.4723C43.327 29.3088 40.4702 28.7031 37.5736 28.7031H30.1104C25.8091 28.7023 21.6397 30.0363 18.3077 32.4793C14.9756 34.9223 12.6857 38.3242 11.8255 42.1094H11.4523C10.1987 42.1012 8.94771 42.2136 7.7207 42.4445V32.0547C7.7207 29.388 8.90016 26.8306 10.9996 24.9449C13.099 23.0593 15.9465 22 18.9156 22H86.0847C89.0537 22 91.9012 23.0593 94.0006 24.9449C96.1001 26.8306 97.2795 29.388 97.2795 32.0547Z" fill="#F7515C"/>
<path d="M93.75 45.6488H11.25C5.0368 45.6488 0 50.6301 0 56.7747V71.6093C0 77.754 5.0368 82.7352 11.25 82.7352H93.75C99.9632 82.7352 105 77.754 105 71.6093V56.7747C105 50.6301 99.9632 45.6488 93.75 45.6488Z" fill="#F7515C"/>
<path d="M85.4129 42.1094H56.9033C57.6732 40.1536 59.0978 38.4595 60.9818 37.2595C62.8657 36.0594 65.1168 35.4121 67.4265 35.4062H74.8897C77.1994 35.4121 79.4505 36.0594 81.3345 37.2595C83.2184 38.4595 84.643 40.1536 85.4129 42.1094ZM48.0967 42.1094H19.5872C20.357 40.1536 21.7816 38.4595 23.6656 37.2595C25.5495 36.0594 27.8007 35.4121 30.1103 35.4062H37.5736C39.8832 35.4121 42.1343 36.0594 44.0183 37.2595C45.9023 38.4595 47.3268 40.1536 48.0967 42.1094Z" fill="#282A30"/>
</g>
<defs>
<clipPath id="clip0_11089_14">
<rect width="105" height="105" fill="white"/>
</clipPath>
</defs>
</svg>
